<?xml version="1.0" encoding="UTF-8"?>
<svg version="1.1" xmlns="http://www.w3.org/2000/svg" width="129" height="136">
<path d="M0 0 C41.91 0 83.82 0 127 0 C127 43.89 127 87.78 127 133 C85.09 133 43.18 133 0 133 C0 89.11 0 45.22 0 0 Z " fill="#DB93A3" transform="translate(0,1)"/>
<path d="M0 0 C41.91 0 83.82 0 127 0 C127 43.89 127 87.78 127 133 C85.09 133 43.18 133 0 133 C0 89.11 0 45.22 0 0 Z M7.25 10 C5.36051502 13.02317596 4.87424754 15.522999 4.85955811 19.00961304 C4.85384796 19.82268417 4.84813782 20.63575531 4.84225464 21.47346497 C4.84113678 22.36184555 4.84001892 23.25022614 4.83886719 24.16552734 C4.83390228 25.1040303 4.82893738 26.04253326 4.82382202 27.00947571 C4.8092009 30.11830373 4.80239877 33.22708073 4.796875 36.3359375 C4.79112389 38.49443565 4.78536615 40.65293377 4.77960205 42.81143188 C4.76909247 47.3391341 4.76324939 51.86681855 4.75976562 56.39453125 C4.75427839 62.19748714 4.73024515 68.00020869 4.70179367 73.80309105 C4.68317548 78.26232592 4.67796214 82.72150423 4.67642975 87.18077469 C4.67340128 89.32020983 4.66536625 91.45964394 4.65224457 93.59904099 C4.63520004 96.59143699 4.63706044 99.58325881 4.64355469 102.57568359 C4.6343399 103.46001572 4.62512512 104.34434784 4.6156311 105.25547791 C4.64714507 109.88828759 4.73466028 113.3883084 8 117 C9.32 117 10.64 117 12 117 C12 116.01 12 115.02 12 114 C12.97174164 114.32335327 13.94348328 114.64670654 14.94467163 114.9798584 C19.27845967 116.21054307 23.40290144 116.30972639 27.88525391 116.32226562 C28.74631241 116.33219543 29.60737091 116.34212524 30.49452209 116.35235596 C33.32190213 116.381393 36.14905835 116.39516278 38.9765625 116.40625 C40.9499817 116.41776338 42.92340089 116.42927871 44.89682007 116.4407959 C49.02399735 116.46175248 53.15109738 116.47348133 57.27832031 116.48046875 C62.56584492 116.49147106 67.85234799 116.53961957 73.13955116 116.59641266 C77.21105967 116.63364582 81.28232045 116.64407513 85.35398483 116.6471405 C87.30367031 116.65319167 89.25335151 116.66924291 91.20286942 116.69551086 C93.92722241 116.72962184 96.64905536 116.72588072 99.37353516 116.71289062 C100.17677719 116.73132019 100.98001923 116.74974976 101.80760193 116.76873779 C106.07640265 116.70496884 107.59674012 116.33223854 111.00665283 113.52287292 C113.771716 109.53968926 113.64800802 105.62552899 113.52001953 100.92114258 C113.51593079 100.02775681 113.51184204 99.13437103 113.50762939 98.21391296 C113.48891584 95.27342354 113.43543842 92.33459144 113.3828125 89.39453125 C113.36585983 87.34765084 113.351565 85.30074683 113.33981323 83.25382996 C113.30377212 77.87391419 113.24030537 72.49471778 113.16845703 67.11517334 C113.05502149 58.49423123 112.97023858 49.87321503 112.91006088 41.25174522 C112.88309361 38.23844279 112.8364997 35.22587365 112.7883606 32.21284485 C112.77107696 30.37212809 112.75450753 28.53140445 112.73876953 26.69067383 C112.72012848 25.85061798 112.70148743 25.01056213 112.68228149 24.14505005 C112.65894811 18.35605894 112.65894811 18.35605894 114.48919487 16.44527721 C114.98776056 15.96833573 115.48632626 15.49139425 116 15 C116.66680368 12.04279372 116.66680368 12.04279372 116 9 C113.15805705 5.8425607 110.89100793 4.74782897 106.74987793 4.49879456 C105.03585043 4.47813317 103.32147074 4.47948534 101.60742188 4.49829102 C100.66862686 4.49288803 99.72983185 4.48748505 98.7625885 4.48191833 C95.66432007 4.46942742 92.56698019 4.48592485 89.46875 4.50390625 C87.31310986 4.50375127 85.15746943 4.50226247 83.00183105 4.49949646 C78.48595855 4.4981123 73.97040358 4.51067368 69.45458984 4.53344727 C63.66732524 4.56183167 57.88058825 4.55909467 52.09328461 4.54635715 C47.64259336 4.53940076 43.19202396 4.54718887 38.74134827 4.55961418 C36.6075131 4.56412904 34.47366485 4.56446518 32.33982849 4.56054878 C29.35713912 4.55763701 26.37517574 4.57414238 23.39257812 4.59594727 C22.07079308 4.58919479 22.07079308 4.58919479 20.7223053 4.58230591 C14.92513173 4.65268766 11.22731952 5.45449198 7.25 10 Z " fill="#9E647E" transform="translate(0,1)"/>
<path d="M0 0 C1.51865 -0.01144873 3.03726207 -0.03178629 4.55566406 -0.06152344 C19.21320441 -0.3485175 29.05940207 2.43239104 39.83056641 12.76391602 C47.61832596 21.31145699 48.63415769 31.75732573 48.50634766 42.83032227 C47.93124134 52.45521479 43.31184606 60.43862795 36.41650391 67.11938477 C27.16067958 74.5577699 17.61699594 75.93069178 6.09277344 75.76171875 C3.90695865 75.73243346 1.72352988 75.74121155 -0.46240234 75.75415039 C-10.88283141 75.70777219 -10.88283141 75.70777219 -13.87435913 74.19854736 C-16.57388619 71.38512097 -16.18202731 69.28496648 -16.15478516 65.43701172 C-16.15536926 64.74407013 -16.15595337 64.05112854 -16.15655518 63.33718872 C-16.15376952 61.04793102 -16.12265764 58.7599773 -16.09130859 56.47094727 C-16.08384785 54.88340466 -16.07815413 53.29585284 -16.07415771 51.70829773 C-16.05888808 47.53069615 -16.01959541 43.35365123 -15.9753418 39.17626953 C-15.9344174 34.91324392 -15.91615279 30.65012833 -15.89599609 26.38696289 C-15.85310191 18.0227752 -15.78483516 9.65903986 -15.70068359 1.29516602 C-11.18476362 -0.96279397 -5.02257018 0.02632149 0 0 Z " fill="#F6E8D4" transform="translate(51.70068359375,28.704833984375)"/>
<path d="M0 0 C41.91 0 83.82 0 127 0 C127 43.89 127 87.78 127 133 C85.09 133 43.18 133 0 133 C0 89.11 0 45.22 0 0 Z M5.75 8.5 C3.48809186 11.73129734 2.8763485 14.17578131 2.84609985 18.02738953 C2.83749939 18.84453934 2.82889893 19.66168915 2.82003784 20.50360107 C2.81577789 21.39661926 2.81151794 22.28963745 2.80712891 23.2097168 C2.79895142 24.15315445 2.79077393 25.0965921 2.78234863 26.06861877 C2.75750685 29.19547899 2.74098058 32.3222938 2.7265625 35.44921875 C2.72123882 36.51767344 2.71591515 37.58612812 2.71043015 38.68696022 C2.68370229 44.34362699 2.66432725 50.00027173 2.64990234 55.65698242 C2.63656772 60.33524142 2.60872285 65.01306377 2.56787109 69.69116211 C2.51852354 75.34215825 2.49377836 80.99275853 2.48667526 86.64396095 C2.4799674 88.79490287 2.46475755 90.94583612 2.44078445 93.09665489 C2.40908915 96.11267255 2.40910315 99.12716937 2.41650391 102.14331055 C2.40009857 103.02620758 2.38369324 103.90910461 2.36679077 104.8187561 C2.42919402 111.05458554 4.05664165 115.15375204 8 120 C13.32678355 124.8312688 16.82457083 125.15212437 23.83666992 125.16113281 C24.75230713 125.16609772 25.66794434 125.17106262 26.61132812 125.17617798 C29.65104923 125.19082356 32.6907181 125.19760666 35.73046875 125.203125 C37.84076438 125.20887582 39.95106 125.21463356 42.06135559 125.22039795 C46.49248499 125.23091567 50.9235962 125.23675285 55.35473633 125.24023438 C61.02636936 125.24571147 66.69776139 125.26971956 72.36931896 125.29820633 C76.7317016 125.31685539 81.09402656 125.32203959 85.45644569 125.32357025 C87.54677964 125.32659371 89.63711264 125.33461187 91.72740746 125.34775543 C94.65724201 125.36485815 97.58649285 125.36292491 100.51635742 125.35644531 C101.80637413 125.37026749 101.80637413 125.37026749 103.12245178 125.3843689 C109.92151391 125.33739445 114.61304964 124.07560901 119.875 119.5 C122.59670495 116.29799417 123.12204182 113.9641516 123.16062927 109.89668274 C123.1706749 109.06270462 123.18072052 108.2287265 123.19107056 107.36947632 C123.19690155 106.45775665 123.20273254 105.54603699 123.20874023 104.60668945 C123.21852402 103.64374466 123.2283078 102.68079987 123.23838806 101.68867493 C123.26833999 98.49689109 123.289728 95.30514919 123.30859375 92.11328125 C123.31845149 90.47750154 123.31845149 90.47750154 123.32850838 88.80867577 C123.36110245 83.0353055 123.38555222 77.26195369 123.4050293 71.48852539 C123.42283711 66.71318675 123.45764977 61.93843917 123.50756836 57.16333008 C123.56779302 51.39560496 123.59850849 45.62842764 123.60820198 39.86040306 C123.61675445 37.66478288 123.63556726 35.46917724 123.6649456 33.27373695 C123.70391913 30.19527265 123.70488663 27.11893627 123.69702148 24.0402832 C123.71702209 23.13868469 123.73702271 22.23708618 123.75762939 21.3081665 C123.68128366 14.62849015 121.68268262 10.74075204 117 6 C112.59893271 2.18036494 107.98116436 2.57431411 102.42382812 2.61181641 C101.46552597 2.60655945 100.50722382 2.60130249 99.5198822 2.59588623 C96.35683828 2.58269838 93.19429891 2.5914202 90.03125 2.6015625 C87.83076888 2.59954142 85.6302884 2.5966297 83.42980957 2.59286499 C78.81984068 2.58844328 74.21004626 2.59486793 69.60009766 2.60888672 C63.69178631 2.62597835 57.78388381 2.61613637 51.87558746 2.59816933 C47.33226441 2.58732748 42.78903825 2.59077971 38.24571228 2.5985527 C36.06721447 2.60055359 33.88870786 2.59809935 31.71022034 2.59111404 C28.66530056 2.58349316 25.62104239 2.59511316 22.57617188 2.61181641 C21.67628036 2.60574371 20.77638885 2.59967102 19.84922791 2.59341431 C13.56591693 2.65725094 10.08062393 3.68819564 5.75 8.5 Z " fill="#6EBADC" transform="translate(0,1)"/>
<path d="M0 0 C0.33 0 0.66 0 1 0 C1.0270203 2.75006608 1.04684883 5.49986546 1.0625 8.25 C1.07087891 9.02730469 1.07925781 9.80460937 1.08789062 10.60546875 C1.09111328 11.35957031 1.09433594 12.11367187 1.09765625 12.890625 C1.10289307 13.58188477 1.10812988 14.27314453 1.11352539 14.98535156 C0.99437971 17.09973898 0.57618237 18.96641515 0 21 C0.66 21.33 1.32 21.66 2 22 C2.66 21.34 3.32 20.68 4 20 C3.34 19.67 2.68 19.34 2 19 C2.33 18.34 2.66 17.68 3 17 C4.65 17.33 6.3 17.66 8 18 C8 17.01 8 16.02 8 15 C6.68 15.66 5.36 16.32 4 17 C3.505 15.515 3.505 15.515 3 14 C3.66 13.01 4.32 12.02 5 11 C4.01 10.01 4.01 10.01 3 9 C3.66 8.34 4.32 7.68 5 7 C6.34061543 7.30271961 7.67405895 7.63837971 9 8 C9.99 7.67 10.98 7.34 12 7 C12 12.61 12 18.22 12 24 C11.505 23.01 11.505 23.01 11 22 C8.47266765 21.34444881 8.47266765 21.34444881 6 21 C6 21.66 6 22.32 6 23 C5.01 23 4.02 23 3 23 C3.495 23.99 3.495 23.99 4 25 C6.64 25 9.28 25 12 25 C13.51527021 29.54581062 13.30726761 34.04968134 13.375 38.8125 C13.43107422 40.29073242 13.43107422 40.29073242 13.48828125 41.79882812 C13.58704742 49.96898557 13.58704742 49.96898557 10.80859375 53.67578125 C7.71035632 56.23969123 6.6186441 56.68949153 2.6875 56.375 C1.80449219 56.32085937 0.92148438 56.26671875 0.01171875 56.2109375 C-0.65214844 56.14132813 -1.31601563 56.07171875 -2 56 C-2.33 54.35 -2.66 52.7 -3 51 C-2.34 51 -1.68 51 -1 51 C-1 50.34 -1 49.68 -1 49 C3.875 47 3.875 47 5 47 C5 46.01 5 45.02 5 44 C4.01 44.66 3.02 45.32 2 46 C0 45.33333333 -2 44.66666667 -4 44 C-4.99 44.99 -4.99 44.99 -6 46 C-6.33 45.67 -6.66 45.34 -7 45 C-7.2773501 48.18490007 -7.2773501 48.18490007 -5 51 C-5.66 51 -6.32 51 -7 51 C-7.33 52.32 -7.66 53.64 -8 55 C-9.93627769 55.10807131 -11.87427756 55.1856225 -13.8125 55.25 C-14.89144531 55.29640625 -15.97039062 55.3428125 -17.08203125 55.390625 C-20 55 -20 55 -21.88671875 52.984375 C-22.25410156 52.32953125 -22.62148437 51.6746875 -23 51 C-23.99 51.495 -23.99 51.495 -25 52 C-27.56269497 50.95890517 -29.02610343 49.97389657 -31 48 C-30.505 47.01 -30.505 47.01 -30 46 C-27.03 46.33 -24.06 46.66 -21 47 C-20.62875 46.21625 -20.2575 45.4325 -19.875 44.625 C-17.56693694 41.39371171 -15.78383679 40.92493788 -12 40 C-12 39.34 -12 38.68 -12 38 C-10.35 38 -8.7 38 -7 38 C-7.33 39.32 -7.66 40.64 -8 42 C-6.68 41.67 -5.36 41.34 -4 41 C-6.03635836 38.96364164 -7.29081766 37.92886252 -10 37 C-13.66537971 37.99064317 -16.68573064 39.95100011 -19.86328125 42 C-28.19198838 45.89789584 -37.03650857 45.23279783 -46 45.125 C-47.45702511 45.11495155 -48.91405691 45.10582899 -50.37109375 45.09765625 C-53.91420329 45.07578711 -57.45705812 45.04135977 -61 45 C-58.03 45.33 -55.06 45.66 -52 46 C-52.99 46.99 -53.98 47.98 -55 49 C-55.66 49 -56.32 49 -57 49 C-57.33 50.98 -57.66 52.96 -58 55 C-61.63 55 -65.26 55 -69 55 C-68.67 54.34 -68.34 53.68 -68 53 C-68.33 52.34 -68.66 51.68 -69 51 C-69.99 51.495 -69.99 51.495 -71 52 C-70.690625 51.4225 -70.38125 50.845 -70.0625 50.25 C-69.07416636 48.15705816 -68.4831387 46.25464725 -68 44 C-67.34 44 -66.68 44 -66 44 C-65.20046862 47.28696233 -64.90341064 48.71023192 -66 52 C-64.35 52.33 -62.7 52.66 -61 53 C-61 52.01 -61 51.02 -61 50 C-61.99 50 -62.98 50 -64 50 C-64.5625 48.0625 -64.5625 48.0625 -65 46 C-64.505 45.505 -64.505 45.505 -64 45 C-64.40929986 42.94603274 -64.40929986 42.94603274 -65 41 C-66.32 40.67 -67.64 40.34 -69 40 C-68.67 40.99 -68.34 41.98 -68 43 C-69.32 42.67 -70.64 42.34 -72 42 C-72 41.34 -72 40.68 -72 40 C-68.91190305 38.23537317 -67.76687864 38 -64 38 C-63.40123047 38.64831787 -62.80246094 39.29663574 -62.18554688 39.96459961 C-59.14976447 42.79182457 -57.13092871 42.53054203 -53.03125 42.56640625 C-52.01701965 42.57570412 -52.01701965 42.57570412 -50.9822998 42.58518982 C-49.5500634 42.59228265 -48.11774447 42.58912307 -46.68554688 42.57641602 C-44.53353014 42.5627135 -42.38601323 42.59641421 -40.234375 42.63476562 C-29.36277654 42.69504856 -18.79385816 40.67052588 -10.59765625 32.9375 C-3.79252833 24.68482653 -1.12303535 17.16639753 -0.4375 6.6875 C-0.31181641 4.80611328 -0.31181641 4.80611328 -0.18359375 2.88671875 C-0.12300781 1.93410156 -0.06242187 0.98148438 0 0 Z M-73 42 C-72.67 42.99 -72.34 43.98 -72 45 C-71.01 44.67 -70.02 44.34 -69 44 C-70.33333333 46.66666667 -71.66666667 49.33333333 -73 52 C-74.98 51.34 -76.96 50.68 -79 50 C-78.67 47.69 -78.34 45.38 -78 43 C-76.35 42.67 -74.7 42.34 -73 42 Z M-4 45 C-3.01 45.33 -2.02 45.66 -1 46 C-2.32 46.99 -3.64 47.98 -5 49 C-4.67 47.68 -4.34 46.36 -4 45 Z " fill="#D890A1" transform="translate(100,61)"/>
<path d="M0 0 C0.75732422 0.00644531 1.51464844 0.01289063 2.29492188 0.01953125 C3.08060547 0.03628906 3.86628906 0.05304687 4.67578125 0.0703125 C5.47306641 0.07933594 6.27035156 0.08835937 7.09179688 0.09765625 C9.05742025 0.12119665 11.022889 0.15706703 12.98828125 0.1953125 C12.34117188 1.13761719 11.6940625 2.07992188 11.02734375 3.05078125 C9.29349767 5.72462434 8.65050145 7.21532161 7.98828125 10.1953125 C6.99828125 10.6903125 6.99828125 10.6903125 5.98828125 11.1953125 C6.31359833 11.8836467 6.63891541 12.5719809 6.97409058 13.28117371 C8.14301617 16.63992221 8.22892179 19.26781017 8.21533203 22.8215332 C8.21562408 23.46599899 8.21591614 24.11046478 8.21621704 24.77445984 C8.2148313 26.89014471 8.19930632 29.00547092 8.18359375 31.12109375 C8.17986092 32.59368192 8.17701522 34.06627259 8.17501831 35.53886414 C8.16740308 39.40388922 8.14777288 43.26876263 8.12561035 47.13372803 C8.10510633 51.08196969 8.09600687 55.030236 8.0859375 58.97851562 C8.06452485 66.71751687 8.03041458 74.45639338 7.98828125 82.1953125 C7.65828125 81.2053125 7.32828125 80.2153125 6.98828125 79.1953125 C6.32828125 79.1953125 5.66828125 79.1953125 4.98828125 79.1953125 C4.65828125 80.1853125 4.32828125 81.1753125 3.98828125 82.1953125 C3.65828125 80.8753125 3.32828125 79.5553125 2.98828125 78.1953125 C2.32828125 78.1953125 1.66828125 78.1953125 0.98828125 78.1953125 C0.32828125 76.5453125 -0.33171875 74.8953125 -1.01171875 73.1953125 C-0.02171875 72.2053125 0.96828125 71.2153125 1.98828125 70.1953125 C2.31828125 70.8553125 2.64828125 71.5153125 2.98828125 72.1953125 C3.31828125 70.2153125 3.64828125 68.2353125 3.98828125 66.1953125 C4.64828125 66.5253125 5.30828125 66.8553125 5.98828125 67.1953125 C5.98828125 58.2853125 5.98828125 49.3753125 5.98828125 40.1953125 C5.32828125 40.8553125 4.66828125 41.5153125 3.98828125 42.1953125 C3.65828125 41.5353125 3.32828125 40.8753125 2.98828125 40.1953125 C1.99828125 40.1953125 1.00828125 40.1953125 -0.01171875 40.1953125 C-0.34171875 40.8553125 -0.67171875 41.5153125 -1.01171875 42.1953125 C-0.02171875 42.5253125 0.96828125 42.8553125 1.98828125 43.1953125 C1.65828125 43.8553125 1.32828125 44.5153125 0.98828125 45.1953125 C1.64828125 45.1953125 2.30828125 45.1953125 2.98828125 45.1953125 C2.98828125 45.8553125 2.98828125 46.5153125 2.98828125 47.1953125 C3.64828125 47.5253125 4.30828125 47.8553125 4.98828125 48.1953125 C2.32161458 48.1953125 -0.34505208 48.1953125 -3.01171875 48.1953125 C-3.01171875 48.5253125 -3.01171875 48.8553125 -3.01171875 49.1953125 C-4.32509271 50.2213859 -5.6583598 51.22258575 -7.01171875 52.1953125 C-6.68171875 53.5153125 -6.35171875 54.8353125 -6.01171875 56.1953125 C-6.67171875 56.1953125 -7.33171875 56.1953125 -8.01171875 56.1953125 C-8.34171875 57.5153125 -8.67171875 58.8353125 -9.01171875 60.1953125 C-8.35171875 60.5253125 -7.69171875 60.8553125 -7.01171875 61.1953125 C-7.50671875 61.6903125 -7.50671875 61.6903125 -8.01171875 62.1953125 C-8.05235707 63.86148365 -8.05443975 65.52919345 -8.01171875 67.1953125 C-5.04171875 66.2053125 -5.04171875 66.2053125 -2.01171875 65.1953125 C-2.01171875 67.5053125 -2.01171875 69.8153125 -2.01171875 72.1953125 C-3.33171875 72.1953125 -4.65171875 72.1953125 -6.01171875 72.1953125 C-5.68171875 70.8753125 -5.35171875 69.5553125 -5.01171875 68.1953125 C-6.49671875 69.1853125 -6.49671875 69.1853125 -8.01171875 70.1953125 C-8.01171875 71.1853125 -8.01171875 72.1753125 -8.01171875 73.1953125 C-7.35171875 73.8553125 -6.69171875 74.5153125 -6.01171875 75.1953125 C-7.49671875 75.6903125 -7.49671875 75.6903125 -9.01171875 76.1953125 C-9.34171875 77.1853125 -9.67171875 78.1753125 -10.01171875 79.1953125 C-11.29782507 32.20722858 -11.29782507 32.20722858 -10.76171875 17.6328125 C-10.73537354 16.72208984 -10.70902832 15.81136719 -10.68188477 14.87304688 C-10.44048499 9.9896011 -9.73548104 6.40417376 -7.01171875 2.1953125 C-3.96490814 0.16410543 -3.41053551 -0.05128625 0 0 Z M-5.01171875 74.1953125 C-3.69171875 74.1953125 -2.37171875 74.1953125 -1.01171875 74.1953125 C-2.00949455 77.18863989 -2.76392125 78.14297565 -5.01171875 80.1953125 C-6.00171875 79.8653125 -6.99171875 79.5353125 -8.01171875 79.1953125 C-6.76171875 76.6953125 -6.76171875 76.6953125 -5.01171875 74.1953125 Z " fill="#DC92A2" transform="translate(27.01171875,15.8046875)"/>
<path d="M0 0 C6.19974058 0.08870853 10.82727709 1.5714136 15.6875 5.4375 C20.36652525 11.28628157 22.60728056 16.20176919 22.2578125 23.796875 C21.38751828 30.46205509 18.83806997 35.56723314 13.9375 40.25 C9.49183556 42.93360154 5.29766266 43.38937439 0.1640625 43.3203125 C-0.81739746 43.31016113 -1.79885742 43.30000977 -2.81005859 43.28955078 C-3.55336426 43.27649902 -4.29666992 43.26344727 -5.0625 43.25 C-5.08714574 37.28686834 -5.105334 31.32376605 -5.11743164 25.3605957 C-5.12247278 23.33031702 -5.12930557 21.30004198 -5.13793945 19.26977539 C-5.15001467 16.35822653 -5.15573034 13.4467255 -5.16015625 10.53515625 C-5.16531754 9.6216188 -5.17047882 8.70808136 -5.17579651 7.76686096 C-5.17599168 5.59424573 -5.12461805 3.42172704 -5.0625 1.25 C-3.53040284 -0.28209716 -2.13059947 0.04385453 0 0 Z " fill="#DA90A0" transform="translate(59.0625,43.75)"/>
<path d="M0 0 C1.52169322 -0.00322059 3.04338614 -0.00658525 4.56507874 -0.01008606 C7.73097452 -0.01603013 10.89684318 -0.01793044 14.06274414 -0.01733398 C18.11677257 -0.01723165 22.17062868 -0.03097815 26.22461605 -0.04810619 C29.35672305 -0.05921511 32.48878787 -0.06125367 35.62091255 -0.06072426 C37.11642625 -0.06190241 38.6119411 -0.06631492 40.10743523 -0.07405663 C42.19145895 -0.08385121 44.27510104 -0.0809828 46.35913086 -0.07495117 C47.54284775 -0.07637619 48.72656464 -0.07780121 49.94615173 -0.07926941 C52.85794696 0.15859803 54.51772213 0.64422061 56.97265625 2.16796875 C56.97265625 2.49796875 56.97265625 2.82796875 56.97265625 3.16796875 C55.92695969 3.17827621 54.88126312 3.18858368 53.80387878 3.19920349 C43.95965383 3.29686739 34.11549307 3.39959484 24.2713728 3.50730801 C19.21015294 3.56252374 14.14892729 3.61594165 9.08764648 3.6652832 C4.20523813 3.71294657 -0.67709947 3.7652902 -5.55942345 3.8209095 C-7.42416311 3.84132409 -9.28892218 3.86003866 -11.15369606 3.87704277 C-13.76114553 3.90110653 -16.3684612 3.9311585 -18.97583008 3.96264648 C-19.75050629 3.96840195 -20.5251825 3.97415741 -21.32333374 3.98008728 C-24.48250193 4.02358701 -27.00837696 4.16164649 -30.02734375 5.16796875 C-32.79437816 10.74909598 -32.4885788 17.00853802 -32.65234375 23.10546875 C-32.69029053 24.31936279 -32.7282373 25.53325684 -32.76733398 26.78393555 C-33.33708429 46.90151391 -33.11019652 67.0449421 -33.02734375 87.16796875 C-34.01734375 87.16796875 -35.00734375 87.16796875 -36.02734375 87.16796875 C-36.02734375 82.21796875 -36.02734375 77.26796875 -36.02734375 72.16796875 C-38.00734375 72.16796875 -39.98734375 72.16796875 -42.02734375 72.16796875 C-42.68734375 76.78796875 -43.34734375 81.40796875 -44.02734375 86.16796875 C-42.54234375 85.17796875 -42.54234375 85.17796875 -41.02734375 84.16796875 C-40.03734375 84.16796875 -39.04734375 84.16796875 -38.02734375 84.16796875 C-37.40234375 86.54296875 -37.40234375 86.54296875 -37.02734375 89.16796875 C-38.01734375 90.15796875 -38.01734375 90.15796875 -39.02734375 91.16796875 C-39.72482958 92.48544199 -40.39694332 93.81711068 -41.02734375 95.16796875 C-42.01734375 95.16796875 -43.00734375 95.16796875 -44.02734375 95.16796875 C-44.35734375 96.15796875 -44.68734375 97.14796875 -45.02734375 98.16796875 C-45.02734375 69.12796875 -45.02734375 40.08796875 -45.02734375 10.16796875 C-42.59789215 13.81214615 -42.865548 15.88038147 -43.02734375 20.16796875 C-42.03734375 19.83796875 -41.04734375 19.50796875 -40.02734375 19.16796875 C-40.02734375 19.82796875 -40.02734375 20.48796875 -40.02734375 21.16796875 C-39.03734375 21.49796875 -38.04734375 21.82796875 -37.02734375 22.16796875 C-38.01734375 22.16796875 -39.00734375 22.16796875 -40.02734375 22.16796875 C-40.35734375 23.48796875 -40.68734375 24.80796875 -41.02734375 26.16796875 C-41.68734375 26.16796875 -42.34734375 26.16796875 -43.02734375 26.16796875 C-43.02734375 28.80796875 -43.02734375 31.44796875 -43.02734375 34.16796875 C-42.03734375 33.50796875 -41.04734375 32.84796875 -40.02734375 32.16796875 C-39.36734375 32.49796875 -38.70734375 32.82796875 -38.02734375 33.16796875 C-37.69734375 32.17796875 -37.36734375 31.18796875 -37.02734375 30.16796875 C-37.02734375 31.48796875 -37.02734375 32.80796875 -37.02734375 34.16796875 C-36.36734375 34.16796875 -35.70734375 34.16796875 -35.02734375 34.16796875 C-35.04829102 33.44206543 -35.06923828 32.71616211 -35.09082031 31.96826172 C-35.17428025 28.6599732 -35.22609914 25.35190664 -35.27734375 22.04296875 C-35.31085937 20.90085937 -35.344375 19.75875 -35.37890625 18.58203125 C-35.50408232 7.81688957 -35.50408232 7.81688957 -31.02734375 3.16796875 C-22.44690946 -1.98441242 -9.69888781 0.00486764 0 0 Z " fill="#DE9AAA" transform="translate(50.02734375,12.83203125)"/>
<path d="M0 0 C1.23834595 -0.01506844 1.23834595 -0.01506844 2.50170898 -0.03044128 C3.40407791 -0.03627228 4.30644684 -0.04210327 5.23616028 -0.04811096 C6.66594711 -0.06278664 6.66594711 -0.06278664 8.12461853 -0.07775879 C11.28393661 -0.10770959 14.44321232 -0.12909846 17.60261536 -0.14796448 C19.22184623 -0.15782222 19.22184623 -0.15782222 20.87378883 -0.1678791 C26.58880427 -0.20047276 32.30380106 -0.22492257 38.01887512 -0.24440002 C42.74571399 -0.26220739 47.47195567 -0.29701935 52.19856262 -0.34693909 C57.90793389 -0.4071674 63.61675173 -0.43787971 69.32642555 -0.44757271 C71.49971771 -0.45612459 73.67299519 -0.47493597 75.84610558 -0.50431633 C78.89344333 -0.54329475 81.93863174 -0.54425678 84.98616028 -0.53639221 C85.87840805 -0.55639282 86.77065582 -0.57639343 87.68994141 -0.59700012 C94.34087043 -0.5202212 98.21213217 1.50624037 102.93464661 6.16062927 C106.77544685 10.57493032 106.36008658 15.25033595 106.3228302 20.82859802 C106.32808716 21.79665375 106.33334412 22.76470947 106.33876038 23.76210022 C106.35194914 26.95760804 106.34322606 30.15261651 106.33308411 33.34812927 C106.33510516 35.57103063 106.33801686 37.79393135 106.34178162 40.01683044 C106.34620346 44.67387713 106.33977827 49.33075111 106.32575989 53.98777771 C106.30866826 59.95662178 106.31851017 65.92506116 106.33647728 71.89389038 C106.34731879 76.48353626 106.34386705 81.07308622 106.3360939 85.66273499 C106.33409292 87.86356148 106.33654758 90.06439669 106.34353256 92.26521301 C106.35115288 95.34126345 106.33953421 98.41665886 106.3228302 101.49266052 C106.32890289 102.40190277 106.33497559 103.31114502 106.3412323 104.24794006 C106.28394923 109.94317274 105.50585751 113.44543056 101.46980286 117.70750427 C97.21194334 121.18607385 94.28474825 122.2743278 88.88743591 122.30780029 C87.69317741 122.31853325 87.69317741 122.31853325 86.47479248 122.32948303 C85.61027969 122.33217194 84.74576691 122.33486084 83.85505676 122.33763123 C82.47875343 122.34748802 82.47875343 122.34748802 81.074646 122.35754395 C78.04099951 122.37724079 75.00740238 122.38892997 71.97370911 122.39891052 C70.41830477 122.40502381 70.41830477 122.40502381 68.83147812 122.4112606 C63.34568736 122.43210341 57.8599215 122.4464143 52.37409973 122.45579529 C46.70908041 122.46687109 41.04445264 122.50128981 35.37957191 122.54096699 C31.0215227 122.56710581 26.66356733 122.57548458 22.30544662 122.57907677 C20.21706363 122.5839478 18.12868496 122.59557645 16.04037857 122.61411476 C13.1176107 122.63845331 10.19586363 122.63755101 7.27302551 122.63059998 C6.41256119 122.64341003 5.55209686 122.65622009 4.66555786 122.66941833 C-0.73350067 122.62266164 -3.77218237 121.73166194 -8.06535339 118.16062927 C-11.7204803 114.09937715 -14.30999516 110.56157269 -14.3260498 104.99952698 C-14.33667702 103.76740479 -14.33667702 103.76740479 -14.34751892 102.51039124 C-14.3450415 101.61782623 -14.34256409 100.72526123 -14.3400116 99.8056488 C-14.34512253 98.85885254 -14.35023346 97.91205627 -14.35549927 96.93656921 C-14.36940375 93.80546249 -14.36843771 90.67457571 -14.36613464 87.54344177 C-14.37002136 85.36634743 -14.37435597 83.18925385 -14.37911987 81.01216125 C-14.38658412 76.44753055 -14.38628949 71.88297718 -14.38102722 67.31834412 C-14.37523512 61.47177588 -14.39215651 55.62552469 -14.41537189 49.77900887 C-14.43011209 45.28197888 -14.43098048 40.78502517 -14.42786217 36.28797531 C-14.42837532 34.13262683 -14.43361202 31.97727406 -14.44367409 29.82194901 C-14.45602522 26.80589019 -14.44925427 23.79044792 -14.43766785 20.7743988 C-14.44913345 19.44162399 -14.44913345 19.44162399 -14.46083069 18.08192444 C-14.40806227 11.86002466 -13.2387162 7.67358002 -9.06535339 2.84812927 C-6.15294991 0.39078884 -3.67838064 0.03525519 0 0 Z M-9.81535339 7.16062927 C-12.61047933 11.63283077 -12.23368971 16.18914816 -12.25822449 21.27854919 C-12.26640198 22.21223328 -12.27457947 23.14591736 -12.28300476 24.1078949 C-12.30784557 27.20228943 -12.32437261 30.29663809 -12.33879089 33.39109802 C-12.34411457 34.44852015 -12.34943825 35.50594227 -12.35492325 36.59540749 C-12.38165074 42.19371948 -12.40102585 47.79200922 -12.41545105 53.3903656 C-12.42878533 58.02012409 -12.45662956 62.64944133 -12.4974823 67.27903748 C-12.54683297 72.87167958 -12.57157541 78.46392167 -12.57867813 84.05677223 C-12.58538551 86.18538591 -12.60059412 88.31399086 -12.62456894 90.44248009 C-12.65626835 93.42736949 -12.65624966 96.41072242 -12.64884949 99.39573669 C-12.66525482 100.26928299 -12.68166016 101.14282928 -12.69856262 102.04284668 C-12.63562602 108.2683131 -10.95026324 112.29657867 -7.06535339 117.16062927 C-2.22190274 121.71053746 3.19210707 121.3130688 9.53938293 121.32176208 C10.84012505 121.32920944 10.84012505 121.32920944 12.16714478 121.33680725 C15.0336639 121.35140263 17.90012769 121.35822652 20.76667786 121.36375427 C22.76201376 121.36950789 24.75734966 121.3752656 26.75268555 121.38102722 C30.9364701 121.39152974 35.12023549 121.39737731 39.30403137 121.40086365 C44.65724805 121.40634673 50.01021017 121.43037405 55.36334705 121.4588356 C59.48553196 121.47748632 63.60765585 121.48266888 67.72987938 121.48419952 C69.70298848 121.48722108 71.67609662 121.4952328 73.6491642 121.5083847 C76.41354711 121.52549598 79.17731187 121.52355255 81.94172668 121.51707458 C82.75184204 121.52628937 83.5619574 121.53550415 84.3966217 121.54499817 C89.6350125 121.5066684 93.24665556 120.51858838 97.93464661 118.16062927 C97.93464661 117.50062927 97.93464661 116.84062927 97.93464661 116.16062927 C98.55339661 115.93375427 99.17214661 115.70687927 99.80964661 115.47312927 C102.7170459 113.67738265 102.96744317 112.44974107 103.93464661 109.16062927 C104.23012954 105.99881352 104.22840429 102.85016613 104.22517395 99.67625427 C104.23189117 98.72770569 104.2386084 97.7791571 104.24552917 96.80186462 C104.26450246 93.67139935 104.26843268 90.54114844 104.27058411 87.41062927 C104.27701117 85.23256848 104.28373947 83.05450856 104.29075623 80.87644958 C104.30272637 76.31360369 104.30643718 71.75083351 104.30525208 67.18797302 C104.3050486 61.34013733 104.33238162 55.49278607 104.36679649 49.64506531 C104.38902481 45.148074 104.39309091 40.65120017 104.39203262 36.15415955 C104.39439353 33.9979739 104.40324446 31.84178525 104.41869736 29.68565369 C104.43827993 26.67175726 104.43255004 23.6589175 104.42048645 20.64500427 C104.43172546 19.7544635 104.44296448 18.86392273 104.45454407 17.94639587 C104.41482386 14.04380237 104.27259788 11.74099609 102.27928162 8.31785583 C96.28173372 2.79969647 92.35737216 1.57157283 84.42854309 1.65892029 C83.48960205 1.6535173 82.55066101 1.64811432 81.58326721 1.64254761 C78.4904342 1.63007581 75.39853478 1.64654014 72.30574036 1.66453552 C70.15152945 1.66438051 67.99731827 1.66289119 65.84310913 1.66012573 C61.33321267 1.65874247 56.82363453 1.67128892 52.313797 1.69407654 C46.53440804 1.72247773 40.75554719 1.71971811 34.97611904 1.70698643 C30.52971895 1.70003067 26.08344086 1.70781713 21.63705635 1.72024345 C19.50601227 1.72475773 17.3749551 1.72509496 15.24390984 1.72117805 C12.26611869 1.71826647 9.28905482 1.73477015 6.31135559 1.75657654 C5.4317366 1.75207489 4.55211761 1.74757324 3.64584351 1.74293518 C-2.14661857 1.81338453 -5.84150455 2.61908774 -9.81535339 7.16062927 Z " fill="#585A75" transform="translate(17.065353393554688,3.8393707275390625)"/>
<path d="M0 0 C0.99 0 1.98 0 3 0 C3.33 1.32 3.66 2.64 4 4 C9.99094097 5.73576517 15.2872925 6.27549818 21.50537109 6.21118164 C22.87755798 6.20921028 22.87755798 6.20921028 24.27746582 6.2071991 C27.27623163 6.20075081 30.27473562 6.18034541 33.2734375 6.16015625 C35.36471276 6.15388118 37.45599137 6.14864264 39.54727173 6.14439392 C45.03409342 6.13113134 50.52080244 6.10670808 56.00756836 6.07904053 C64.81055883 6.03580101 73.61358146 6.00624794 82.41664505 5.9829998 C85.49341161 5.97275622 88.57008857 5.95571452 91.64682007 5.93800354 C93.5215446 5.93117922 95.39626992 5.92457041 97.27099609 5.91821289 C98.55981186 5.90810684 98.55981186 5.90810684 99.87466431 5.89779663 C105.77273371 5.88636685 105.77273371 5.88636685 108 7 C108.625 9.0625 108.625 9.0625 109 11 C108.0409375 11.2165625 108.0409375 11.2165625 107.0625 11.4375 C105.02454854 11.81007181 105.02454854 11.81007181 104 13 C102.59588683 13.0954693 101.18700191 13.12188529 99.77964783 13.12025452 C98.86954453 13.12162918 97.95944122 13.12300385 97.02175903 13.12442017 C96.01547455 13.12082489 95.00919006 13.11722961 93.97241211 13.11352539 C92.91888046 13.11367142 91.86534882 13.11381744 90.77989197 13.1139679 C87.279022 13.11326826 83.77820448 13.10547348 80.27734375 13.09765625 C77.85738657 13.09579225 75.43742901 13.09436826 73.01747131 13.09336853 C66.63384976 13.08954192 60.25025079 13.07971041 53.86663818 13.06866455 C47.35836086 13.05845351 40.8500799 13.05387157 34.34179688 13.04882812 C21.56118797 13.03808827 8.78059586 13.02101014 -4 13 C-4 10.03 -4 7.06 -4 4 C-3.01 3.67 -2.02 3.34 -1 3 C-0.34 3.33 0.32 3.66 1 4 C0.67 2.68 0.34 1.36 0 0 Z " fill="#6BBBDE" transform="translate(4,121)"/>
<path d="M0 0 C4.68111725 3.62550551 4.68111725 3.62550551 5.46691704 7.01257324 C5.62945984 9.51483089 5.6411312 11.97705603 5.59936523 14.484375 C5.60330795 15.43292358 5.60725067 16.38147217 5.61131287 17.35876465 C5.6180178 20.48971615 5.58887004 23.61920486 5.55859375 26.75 C5.55434277 28.92805702 5.55201498 31.10611857 5.55152893 33.28417969 C5.54536425 37.84721431 5.52266765 42.40975792 5.48706055 46.97265625 C5.44178845 52.82038739 5.42703446 58.66767377 5.42332363 64.51556396 C5.41889359 69.01257714 5.40358711 73.50949705 5.3844471 78.00646973 C5.37557036 80.16263055 5.36883771 82.3188013 5.36428642 84.47497559 C5.35523773 87.4886952 5.33284093 90.50201412 5.30639648 93.515625 C5.30573181 94.40616577 5.30506714 95.29670654 5.30438232 96.2142334 C5.25148796 100.58484015 5.04530676 104.02297751 3 108 C2.67 107.34 2.34 106.68 2 106 C-1.96 106.99 -1.96 106.99 -6 108 C-5.67 107.01 -5.34 106.02 -5 105 C-4.01 104.505 -4.01 104.505 -3 104 C-1.63292953 99.5098521 -1.82718191 94.82190732 -1.79467773 90.1706543 C-1.77982834 88.85282707 -1.77982834 88.85282707 -1.76467896 87.50837708 C-1.73317199 84.61368475 -1.70834933 81.71897603 -1.68359375 78.82421875 C-1.66301489 76.81353842 -1.64201817 74.80286233 -1.62062073 72.79219055 C-1.56549632 67.50686072 -1.51604463 62.22149247 -1.46777344 56.93609619 C-1.41748802 51.54004508 -1.36183873 46.14404958 -1.30664062 40.74804688 C-1.19917687 30.16541212 -1.09770582 19.58272903 -1 9 C-1.99 8.67 -2.98 8.34 -4 8 C-2.68 7.34 -1.36 6.68 0 6 C0 4.02 0 2.04 0 0 Z " fill="#B87C95" transform="translate(116,10)"/>
<path d="M0 0 C36.6964093 -0.07581903 73.32177436 -0.12542948 110 1 C110 1.33 110 1.66 110 2 C108.83790512 2.00586624 107.67581024 2.01173248 106.47850037 2.01777649 C95.51701741 2.07503507 84.55573225 2.14781331 73.59445095 2.23571491 C67.95938489 2.28040723 62.32439095 2.31966606 56.68920898 2.34643555 C51.24907253 2.3724796 45.80921374 2.41289028 40.36924934 2.46318626 C38.29571046 2.47984743 36.22212356 2.49136637 34.14852715 2.49761391 C31.23991795 2.50726297 28.33201791 2.53533247 25.42358398 2.56762695 C24.14288025 2.56547432 24.14288025 2.56547432 22.83630371 2.5632782 C17.49198943 2.64698007 13.73932547 3.47621257 9 6 C5.36779375 9.823375 3.86767189 12.85107801 3.89320374 18.09899902 C3.89471939 18.93178879 3.89623505 19.76457855 3.89779663 20.62260437 C3.904534 21.53282852 3.91127136 22.44305267 3.91821289 23.38085938 C3.92127945 24.34208206 3.92434601 25.30330475 3.92750549 26.2936554 C3.9346635 28.38240894 3.94405503 30.47115575 3.95540047 32.55989075 C3.97275554 35.86264491 3.98307842 39.16535094 3.99131775 42.46813965 C4.01580574 51.85917722 4.05140985 61.25014986 4.09594727 70.64111328 C4.122685 76.38279288 4.1397571 82.124435 4.15081596 87.86616516 C4.15703697 90.05749397 4.16705614 92.24881532 4.18089485 94.44010925 C4.2000472 97.49983515 4.20699813 100.55936299 4.21118164 103.61914062 C4.21994324 104.52936478 4.22870483 105.43958893 4.23773193 106.37739563 C4.23642776 107.21018539 4.2351236 108.04297516 4.23377991 108.90100098 C4.23849351 109.98609829 4.23849351 109.98609829 4.24330235 111.09311676 C4 113 4 113 2 116 C1.34 116 0.68 116 0 116 C0 77.72 0 39.44 0 0 Z " fill="#75C1E3" transform="translate(0,1)"/>
<path d="M0 0 C0.91910156 0.15339844 1.83820312 0.30679688 2.78515625 0.46484375 C7.97896901 1.206817 13.20025636 1.35464583 18.4375 1.5625 C19.45521484 1.60568359 20.47292969 1.64886719 21.52148438 1.69335938 C24.01421028 1.79868582 26.50702338 1.90081672 29 2 C29 2.33 29 2.66 29 3 C29.90082809 3.0154612 29.90082809 3.0154612 30.81985474 3.03123474 C37.08183045 3.13958507 43.34367054 3.25415903 49.60546875 3.37231445 C51.94105181 3.41557199 54.27666462 3.45725342 56.61230469 3.49731445 C59.97339842 3.55523969 63.33434366 3.61886986 66.6953125 3.68359375 C67.73615997 3.70030624 68.77700745 3.71701874 69.84939575 3.73423767 C74.66230274 3.83213493 79.26841942 4.00925921 84 5 C84 5.66 84 6.32 84 7 C84.66 6.34 85.32 5.68 86 5 C86.99 6.98 86.99 6.98 88 9 C76.87341787 9.09268518 65.7469276 9.1637576 54.62003803 9.20724869 C49.45334041 9.22812241 44.28690693 9.25643634 39.12036133 9.30175781 C34.13422741 9.34522292 29.14834755 9.36913873 24.1620388 9.37950897 C22.2598184 9.38689913 20.35761188 9.4013304 18.45549965 9.42292023 C15.79074699 9.45196313 13.1270437 9.45595565 10.4621582 9.45410156 C9.2828775 9.47567322 9.2828775 9.47567322 8.07977295 9.49768066 C4.32016734 9.4693808 2.18558034 9.11662053 -1.02888489 7.09661865 C-3 5 -3 5 -3 3 C-2.01 3 -1.02 3 0 3 C0 2.01 0 1.02 0 0 Z " fill="#C4859B" transform="translate(12,115)"/>
<path d="M0 0 C1.52169322 -0.00322059 3.04338614 -0.00658525 4.56507874 -0.01008606 C7.73097452 -0.01603013 10.89684318 -0.01793044 14.06274414 -0.01733398 C18.11677257 -0.01723165 22.17062868 -0.03097815 26.22461605 -0.04810619 C29.35672305 -0.05921511 32.48878787 -0.06125367 35.62091255 -0.06072426 C37.11642625 -0.06190241 38.6119411 -0.06631492 40.10743523 -0.07405663 C42.19145895 -0.08385121 44.27510104 -0.0809828 46.35913086 -0.07495117 C47.54284775 -0.07637619 48.72656464 -0.07780121 49.94615173 -0.07926941 C52.85794696 0.15859803 54.51772213 0.64422061 56.97265625 2.16796875 C56.97265625 2.49796875 56.97265625 2.82796875 56.97265625 3.16796875 C55.92695969 3.17827621 54.88126312 3.18858368 53.80387878 3.19920349 C43.95965383 3.29686739 34.11549307 3.39959484 24.2713728 3.50730801 C19.21015294 3.56252374 14.14892729 3.61594165 9.08764648 3.6652832 C4.20523813 3.71294657 -0.67709947 3.7652902 -5.55942345 3.8209095 C-7.42416311 3.84132409 -9.28892218 3.86003866 -11.15369606 3.87704277 C-13.76114553 3.90110653 -16.3684612 3.9311585 -18.97583008 3.96264648 C-19.75050629 3.96840195 -20.5251825 3.97415741 -21.32333374 3.98008728 C-24.48250193 4.02358701 -27.00837696 4.16164649 -30.02734375 5.16796875 C-32.79437816 10.74909598 -32.4885788 17.00853802 -32.65234375 23.10546875 C-32.69029053 24.31936279 -32.7282373 25.53325684 -32.76733398 26.78393555 C-33.33708429 46.90151391 -33.11019652 67.0449421 -33.02734375 87.16796875 C-33.68734375 87.16796875 -34.34734375 87.16796875 -35.02734375 87.16796875 C-35.19919785 80.07794575 -35.35829683 72.98770942 -35.50952148 65.8972168 C-35.56209055 63.49741495 -35.61732405 61.09766962 -35.67553711 58.69799805 C-35.98434511 45.89186445 -36.15205624 33.09615309 -35.8046875 20.2890625 C-35.7889418 19.25548111 -35.77319611 18.22189972 -35.75697327 17.15699768 C-35.55038525 11.40316226 -35.05634596 7.61519721 -31.02734375 3.16796875 C-22.47762828 -2.00353189 -9.6782865 0.0048573 0 0 Z " fill="#EBB7BC" transform="translate(50.02734375,12.83203125)"/>
<path d="M0 0 C0.33 0 0.66 0 1 0 C1 21.78 1 43.56 1 66 C0.67 65.01 0.34 64.02 0 63 C-0.66 63 -1.32 63 -2 63 C-2.33 63.99 -2.66 64.98 -3 66 C-3.33 64.68 -3.66 63.36 -4 62 C-4.66 62 -5.32 62 -6 62 C-6.66 60.35 -7.32 58.7 -8 57 C-7.01 56.01 -6.02 55.02 -5 54 C-4.67 54.66 -4.34 55.32 -4 56 C-3.505 53.03 -3.505 53.03 -3 50 C-2.34 50.33 -1.68 50.66 -1 51 C-1 42.09 -1 33.18 -1 24 C-1.66 24.66 -2.32 25.32 -3 26 C-3.33 25.34 -3.66 24.68 -4 24 C-4.99 23.34 -5.98 22.68 -7 22 C-6.75 19.625 -6.75 19.625 -6 17 C-3.9375 15.6875 -3.9375 15.6875 -2 15 C-1.67 15.66 -1.34 16.32 -1 17 C-0.67 11.39 -0.34 5.78 0 0 Z M-17 21 C-15.68 21 -14.36 21 -13 21 C-12.67 21.66 -12.34 22.32 -12 23 C-10.68 22.34 -9.36 21.68 -8 21 C-7.67 21.99 -7.34 22.98 -7 24 C-7.33 24.66 -7.66 25.32 -8 26 C-7.01 26.33 -6.02 26.66 -5 27 C-5.33 27.66 -5.66 28.32 -6 29 C-5.34 29 -4.68 29 -4 29 C-4 29.66 -4 30.32 -4 31 C-3.34 31.33 -2.68 31.66 -2 32 C-4.66666667 32 -7.33333333 32 -10 32 C-10 32.33 -10 32.66 -10 33 C-11.31337396 34.0260734 -12.64664105 35.02727325 -14 36 C-13.67 37.32 -13.34 38.64 -13 40 C-13.66 40 -14.32 40 -15 40 C-15.33 41.32 -15.66 42.64 -16 44 C-15.34 44.33 -14.68 44.66 -14 45 C-14.33 45.33 -14.66 45.66 -15 46 C-15.04063832 47.66617115 -15.042721 49.33388095 -15 51 C-13.02 50.34 -11.04 49.68 -9 49 C-9 51.31 -9 53.62 -9 56 C-10.32 56 -11.64 56 -13 56 C-12.67 54.68 -12.34 53.36 -12 52 C-12.99 52.66 -13.98 53.32 -15 54 C-15 54.99 -15 55.98 -15 57 C-14.34 57.66 -13.68 58.32 -13 59 C-14.485 59.495 -14.485 59.495 -16 60 C-16.33 60.99 -16.66 61.98 -17 63 C-17 49.14 -17 35.28 -17 21 Z M-16 23 C-15.65213292 24.97536745 -15.65213292 24.97536745 -15 27 C-14.34 27.33 -13.68 27.66 -13 28 C-13.33 26.35 -13.66 24.7 -14 23 C-14.66 23 -15.32 23 -16 23 Z M-12 58 C-10.68 58 -9.36 58 -8 58 C-8.9977758 60.99332739 -9.7522025 61.94766315 -12 64 C-12.99 63.67 -13.98 63.34 -15 63 C-13.75 60.5 -13.75 60.5 -12 58 Z " fill="#D68C9C" transform="translate(34,32)"/>
<path d="M0 0 C20.13 0 40.26 0 61 0 C61 36.96 61 73.92 61 112 C60.67 112 60.34 112 60 112 C59.67 78.67 59.34 45.34 59 11 C57.35 11 55.7 11 54 11 C51.375 8.625 51.375 8.625 49 6 C45.97315833 3.98210556 45.3870832 3.74813399 41.9947052 3.7215271 C41.18282242 3.71036362 40.37093964 3.69920013 39.53445435 3.68769836 C38.64756927 3.68553818 37.7606842 3.68337799 36.84692383 3.68115234 C35.91014297 3.67110672 34.97336212 3.6610611 34.00819397 3.65071106 C30.90781271 3.6197884 27.80751816 3.60281864 24.70703125 3.5859375 C22.55896758 3.56723317 20.41091132 3.54766031 18.26286316 3.5272522 C12.60597084 3.47584744 6.94905468 3.43626636 1.29205322 3.39910889 C-4.47918639 3.35912152 -10.2503261 3.30800518 -16.02148438 3.2578125 C-27.34758616 3.16095442 -38.67374424 3.07658127 -50 3 C-50 2.67 -50 2.34 -50 2 C-33.5 1.67 -17 1.34 0 1 C0 0.67 0 0.34 0 0 Z " fill="#70A1B4" transform="translate(66,1)"/>
<path d="M0 0 C4.37513257 5.1668185 4.57178998 9.18206893 4.50170898 15.64550781 C4.50981346 17.07577805 4.50981346 17.07577805 4.51808167 18.53494263 C4.53055124 21.67465604 4.51409429 24.81344967 4.49609375 27.953125 C4.49624873 30.13694303 4.49773749 32.32076135 4.50050354 34.50457764 C4.50188657 39.07413944 4.48934121 43.64338699 4.46655273 48.21289062 C4.43810127 54.08001071 4.44092502 59.94661135 4.45364285 65.81377029 C4.46058336 70.31923898 4.45283051 74.82458673 4.44038582 79.33003998 C4.43586021 81.49426562 4.43554415 83.65850418 4.43945122 85.82273102 C4.44234917 88.8394505 4.42592678 91.85544257 4.40405273 94.87207031 C4.40855438 95.77182587 4.41305603 96.67158142 4.41769409 97.59860229 C4.38768005 100.07940674 4.38768005 100.07940674 4 104 C3.01 104.66 2.02 105.32 1 106 C1.01110306 104.75829544 1.02220612 103.51659088 1.03364563 102.23725891 C1.13497177 90.53956202 1.2099417 78.84195409 1.25906086 67.14391804 C1.28516251 61.12969496 1.32057192 55.11582594 1.37719727 49.10180664 C1.43149528 43.29869796 1.46141626 37.49592999 1.47438622 31.6925869 C1.48362995 29.47775088 1.50168078 27.26293367 1.52865028 25.04824257 C1.56491019 21.94752223 1.56994649 18.84821244 1.56762695 15.74731445 C1.58560333 14.83021698 1.60357971 13.91311951 1.62210083 12.9682312 C1.58645604 8.56903785 1.49807599 6.63673027 -1.28547668 3.07829285 C-2.18126938 2.39245621 -3.07706207 1.70661957 -4 1 C-4.57200134 0.41079269 -5.14400269 -0.17841461 -5.7333374 -0.78547668 C-9.41761537 -2.75958677 -13.15236651 -2.43905748 -17.26660156 -2.43237305 C-18.20352844 -2.4425647 -19.14045532 -2.45275635 -20.10577393 -2.46325684 C-23.20078472 -2.49343655 -26.29548626 -2.50266048 -29.390625 -2.51171875 C-31.5372623 -2.52856172 -33.68388971 -2.54671144 -35.83050537 -2.56611633 C-41.47917594 -2.61366375 -47.12780642 -2.64344255 -52.77661133 -2.66955566 C-58.54125891 -2.69933718 -64.30576834 -2.7458758 -70.0703125 -2.79101562 C-81.38013614 -2.87710276 -92.68998817 -2.94442407 -104 -3 C-104 -3.33 -104 -3.66 -104 -4 C-91.96073075 -4.15386671 -79.92140625 -4.30204773 -67.88197803 -4.4429636 C-62.29164103 -4.5085747 -56.70134204 -4.57614659 -51.11108398 -4.64819336 C-45.71654157 -4.71764573 -40.32196015 -4.78195561 -34.92731285 -4.84269524 C-32.86880962 -4.86677721 -30.81032722 -4.89271442 -28.75187111 -4.92053413 C-25.86952598 -4.95917218 -22.9871774 -4.99122311 -20.10473633 -5.02172852 C-19.25309402 -5.03467453 -18.40145172 -5.04762054 -17.52400208 -5.06095886 C-10.43347569 -5.1241896 -5.7658878 -4.53910316 0 0 Z " fill="#77586E" transform="translate(119,9)"/>
<path d="M0 0 C0.33 0 0.66 0 1 0 C1.67008918 12.70191262 1.0556809 22.01268126 -7.25 32.3125 C-14.56880474 40.02648858 -23.0272602 44.55483396 -33.71313477 45.23706055 C-37.85196024 45.32956188 -41.98644558 45.26306616 -46.125 45.1875 C-47.57290266 45.17241768 -49.02082062 45.15873558 -50.46875 45.14648438 C-53.97948994 45.11377849 -57.48964399 45.06219511 -61 45 C-58.03 45.33 -55.06 45.66 -52 46 C-52.99 46.99 -53.98 47.98 -55 49 C-55.66 49 -56.32 49 -57 49 C-57.33 50.98 -57.66 52.96 -58 55 C-61.63 55 -65.26 55 -69 55 C-68.67 54.34 -68.34 53.68 -68 53 C-68.33 52.34 -68.66 51.68 -69 51 C-69.99 51.495 -69.99 51.495 -71 52 C-70.690625 51.4225 -70.38125 50.845 -70.0625 50.25 C-69.07416636 48.15705816 -68.4831387 46.25464725 -68 44 C-67.34 44 -66.68 44 -66 44 C-65.20046862 47.28696233 -64.90341064 48.71023192 -66 52 C-64.35 52.33 -62.7 52.66 -61 53 C-61 52.01 -61 51.02 -61 50 C-61.99 50 -62.98 50 -64 50 C-64.5625 48.0625 -64.5625 48.0625 -65 46 C-64.505 45.505 -64.505 45.505 -64 45 C-64.40929986 42.94603274 -64.40929986 42.94603274 -65 41 C-66.32 40.67 -67.64 40.34 -69 40 C-68.67 40.99 -68.34 41.98 -68 43 C-69.32 42.67 -70.64 42.34 -72 42 C-72 41.34 -72 40.68 -72 40 C-68.91190305 38.23537317 -67.76687864 38 -64 38 C-63.40123047 38.64831787 -62.80246094 39.29663574 -62.18554688 39.96459961 C-59.14976447 42.79182457 -57.13092871 42.53054203 -53.03125 42.56640625 C-52.01701965 42.57570412 -52.01701965 42.57570412 -50.9822998 42.58518982 C-49.5500634 42.59228265 -48.11774447 42.58912307 -46.68554688 42.57641602 C-44.53353014 42.5627135 -42.38601323 42.59641421 -40.234375 42.63476562 C-29.36277654 42.69504856 -18.79385816 40.67052588 -10.59765625 32.9375 C-3.79252833 24.68482653 -1.12303535 17.16639753 -0.4375 6.6875 C-0.31181641 4.80611328 -0.31181641 4.80611328 -0.18359375 2.88671875 C-0.12300781 1.93410156 -0.06242187 0.98148438 0 0 Z M-73 42 C-72.67 42.99 -72.34 43.98 -72 45 C-71.01 44.67 -70.02 44.34 -69 44 C-70.33333333 46.66666667 -71.66666667 49.33333333 -73 52 C-74.98 51.34 -76.96 50.68 -79 50 C-78.67 47.69 -78.34 45.38 -78 43 C-76.35 42.67 -74.7 42.34 -73 42 Z " fill="#CD8B98" transform="translate(100,61)"/>
<path d="M0 0 C0.33 0.99 0.66 1.98 1 3 C1.99 3 2.98 3 4 3 C5.13788734 5.27577468 5.12342063 6.51033424 5.12025452 9.03689575 C5.12162918 9.88106049 5.12300385 10.72522522 5.12442017 11.5949707 C5.12082489 12.522854 5.11722961 13.4507373 5.11352539 14.40673828 C5.11367142 15.38238739 5.11381744 16.3580365 5.1139679 17.36325073 C5.11326935 20.59896034 5.10547966 23.8346129 5.09765625 27.0703125 C5.09579186 29.30947844 5.09436806 31.54864479 5.09336853 33.78781128 C5.08954498 39.68972901 5.07971607 45.59162224 5.06866455 51.49353027 C5.05844694 57.51261056 5.05387016 63.5316948 5.04882812 69.55078125 C5.03809367 81.36719828 5.02101918 93.18359711 5 105 C4.34 105 3.68 105 3 105 C2.505 105.99 2.505 105.99 2 107 C1.98969254 105.74798798 1.97938507 104.49597595 1.96876526 103.20602417 C1.87099795 91.40549645 1.76826067 79.60502106 1.66066074 67.80457878 C1.60550263 61.73790147 1.55209402 55.67121927 1.50268555 49.60449219 C1.45493709 43.7495014 1.40259054 37.89456811 1.34705925 32.03964615 C1.32668317 29.80616818 1.30796236 27.57267448 1.29092598 25.33916855 C1.2667768 22.2102668 1.2367367 19.08147279 1.20532227 15.95263672 C1.1995668 15.02978378 1.19381134 14.10693085 1.18788147 13.15611267 C1.13662885 8.66336161 0.90587209 4.4217408 0 0 Z " fill="#7CBCD9" transform="translate(121,9)"/>
<path d="M0 0 C2.31 0 4.62 0 7 0 C7.33 0.66 7.66 1.32 8 2 C6.02 2.33 4.04 2.66 2 3 C2.01160156 3.61488281 2.02320313 4.22976562 2.03515625 4.86328125 C2.04869141 6.07564453 2.04869141 6.07564453 2.0625 7.3125 C2.07410156 8.11300781 2.08570313 8.91351563 2.09765625 9.73828125 C2 12 2 12 1 15 C2.65 15.33 4.3 15.66 6 16 C5.01 16.66 4.02 17.32 3 18 C2.34 17.67 1.68 17.34 1 17 C1.185625 18.258125 1.37125 19.51625 1.5625 20.8125 C2.00732761 23.82744268 1.99843846 25.00468461 1 28 C3.0399719 26.63676257 3.0399719 26.63676257 5 25 C5 24.34 5 23.68 5 23 C5.99 23 6.98 23 8 23 C8.33 22.01 8.66 21.02 9 20 C9.66 20 10.32 20 11 20 C10.67 19.01 10.34 18.02 10 17 C14 17 14 17 16.3125 19 C18.53029506 22.94274677 17.90544697 25.7773246 17 30 C16.814375 31.155 16.62875 32.31 16.4375 33.5 C16.293125 34.325 16.14875 35.15 16 36 C14.02 36.495 14.02 36.495 12 37 C12 37.66 12 38.32 12 39 C11.01 39 10.02 39 9 39 C9 39.66 9 40.32 9 41 C8.34 41 7.68 41 7 41 C6.505 39.515 6.505 39.515 6 38 C7.8125 35.3125 7.8125 35.3125 10 33 C10.66 33 11.32 33 12 33 C11.01 32.01 10.02 31.02 9 30 C5.71185401 32.72606304 5.71185401 32.72606304 4.75 36.75 C4.8325 37.4925 4.915 38.235 5 39 C2.525 39.495 2.525 39.495 0 40 C0 26.8 0 13.6 0 0 Z " fill="#DE93A3" transform="translate(56,46)"/>
<path d="M0 0 C2.02163362 1.91523185 3.69314549 3.8708751 5.4375 6.0625 C8.9865541 10.13092787 10.52632357 10.89672608 15.97369385 11.2784729 C17.61548743 11.30198254 19.25745752 11.3146545 20.89941406 11.31884766 C21.79732666 11.32889328 22.69523926 11.3389389 23.62036133 11.34928894 C26.58544277 11.38015609 29.55043376 11.39716597 32.515625 11.4140625 C34.57257874 11.4327713 36.62952478 11.45234449 38.6864624 11.4727478 C44.09838323 11.5241054 49.51032895 11.56371179 54.92236328 11.60089111 C60.44570085 11.64090796 65.96893454 11.69201089 71.4921875 11.7421875 C82.32805207 11.83898978 93.16397524 11.92338087 104 12 C104 12.33 104 12.66 104 13 C73.66020899 13.84570846 43.35081867 14.12172538 13 14 C12.01 14 11.02 14 10 14 C9.67 13.34 9.34 12.68 9 12 C7.35 12.33 5.7 12.66 4 13 C3 10 3 10 4 7 C3.01 7.495 3.01 7.495 2 8 C2 8.99 2 9.98 2 11 C0.35 11 -1.3 11 -3 11 C-3.36923077 3.49230769 -3.36923077 3.49230769 -1.5 1 C-1.005 0.67 -0.51 0.34 0 0 Z " fill="#78AACC" transform="translate(3,114)"/>
<path d="M0 0 C0.66 0 1.32 0 2 0 C2 31.35 2 62.7 2 95 C2.66 95.33 3.32 95.66 4 96 C3.34 96.99 2.68 97.98 2 99 C1.34 99 0.68 99 0 99 C0 66.33 0 33.66 0 0 Z " fill="#6BB8DB" transform="translate(0,18)"/>
<path d="M0 0 C-0.33 1.32 -0.66 2.64 -1 4 C-1.66 4 -2.32 4 -3 4 C-3 4.66 -3 5.32 -3 6 C-8.5657378 8.80511379 -12.87088468 9.4222958 -19.05639648 9.34057617 C-20.37466179 9.34123329 -20.37466179 9.34123329 -21.71955872 9.34190369 C-24.6036354 9.33982566 -27.48711951 9.31654138 -30.37109375 9.29296875 C-32.37890811 9.28736929 -34.38672658 9.28310084 -36.39454651 9.28010559 C-41.66355831 9.26868444 -46.93231965 9.23924073 -52.20123291 9.20599365 C-57.58399061 9.17523388 -62.96678901 9.16158764 -68.34960938 9.14648438 C-78.89984926 9.11436843 -89.44990375 9.06320512 -100 9 C-100 8.67 -100 8.34 -100 8 C-72.94 8 -45.88 8 -18 8 C-18.99 7.34 -19.98 6.68 -21 6 C-21.66 6.33 -22.32 6.66 -23 7 C-22.67 5.68 -22.34 4.36 -22 3 C-20.865625 3.061875 -19.73125 3.12375 -18.5625 3.1875 C-14.33113795 3.21000724 -10.99245815 2.11908492 -7.0546875 0.66796875 C-4.63403367 -0.11897384 -2.52919139 -0.24476046 0 0 Z " fill="#A8728B" transform="translate(118,116)"/>
<path d="M0 0 C6.45411051 0.07194072 12.03702756 1.96208662 16.9375 6.25 C16.6075 6.91 16.2775 7.57 15.9375 8.25 C15.215625 7.63125 14.49375 7.0125 13.75 6.375 C8.74168619 3.29334441 8.74168619 3.29334441 -3.0625 2.25 C-2.7325 15.12 -2.4025 27.99 -2.0625 41.25 C-0.7425 41.25 0.5775 41.25 1.9375 41.25 C1.5971875 40.13625 1.5971875 40.13625 1.25 39 C0.9375 36.25 0.9375 36.25 2.25 34 C3.9375 32.25 3.9375 32.25 5.9375 31.25 C6.9275 31.91 7.9175 32.57 8.9375 33.25 C8.9375 33.91 8.9375 34.57 8.9375 35.25 C8.1125 36.054375 7.2875 36.85875 6.4375 37.6875 C3.58833807 40.01122416 3.58833807 40.01122416 3.9375 43.25 C0.9675 43.25 -2.0025 43.25 -5.0625 43.25 C-5.08714574 37.28686834 -5.105334 31.32376605 -5.11743164 25.3605957 C-5.12247278 23.33031702 -5.12930557 21.30004198 -5.13793945 19.26977539 C-5.15001467 16.35822653 -5.15573034 13.4467255 -5.16015625 10.53515625 C-5.16531754 9.6216188 -5.17047882 8.70808136 -5.17579651 7.76686096 C-5.17599168 5.59424573 -5.12461805 3.42172704 -5.0625 1.25 C-3.53040284 -0.28209716 -2.13059947 0.04385453 0 0 Z " fill="#D792A1" transform="translate(59.0625,43.75)"/>
<path d="M0 0 C0.556875 0.721875 1.11375 1.44375 1.6875 2.1875 C6.33217794 8.16282341 6.33217794 8.16282341 13 11 C15.87631657 11.09987899 18.72838598 11.14686076 21.60473633 11.14526367 C22.47189774 11.14862228 23.33905914 11.1519809 24.23249817 11.15544128 C27.09902378 11.16493938 29.96549088 11.16689391 32.83203125 11.16796875 C34.82736739 11.17118243 36.8227033 11.17454658 38.81803894 11.17805481 C43.00182644 11.18404344 47.18559329 11.18589501 51.36938477 11.18530273 C56.72254478 11.1852012 62.0755719 11.19884596 67.42870045 11.21607494 C71.55088404 11.22721086 75.67303568 11.22922144 79.79523277 11.22869301 C81.76833237 11.22987101 83.74143284 11.23428266 85.71451759 11.24202538 C88.47879883 11.25185611 91.24279394 11.24893489 94.00708008 11.24291992 C95.22225311 11.25134918 95.22225311 11.25134918 96.4619751 11.25994873 C101.34590704 11.23303352 105.36376456 10.55409638 110 9 C110 8.34 110 7.68 110 7 C112.52892721 4.26602464 114.89595133 2.06936578 118 0 C116.76176234 5.7784424 113.83989536 8.86529984 109 12 C106.26743818 12.82992176 103.8013284 13.12950524 100.95278931 13.14717102 C100.15661697 13.15432632 99.36044464 13.16148163 98.54014587 13.16885376 C97.67563309 13.17154266 96.8111203 13.17423157 95.92041016 13.17700195 C94.54410683 13.18685875 94.54410683 13.18685875 93.13999939 13.19691467 C90.1063529 13.21661152 87.07275577 13.22830069 84.0390625 13.23828125 C82.48365816 13.24439454 82.48365816 13.24439454 80.89683151 13.25063133 C75.41104075 13.27147414 69.92527489 13.28578503 64.43945312 13.29516602 C58.77443381 13.30624182 53.10980604 13.34066054 47.44492531 13.38033772 C43.0868761 13.40647654 38.72892073 13.41485531 34.37080002 13.41844749 C32.28241702 13.42331853 30.19403836 13.43494717 28.10573196 13.45348549 C25.18296409 13.47782403 22.26121702 13.47692174 19.33837891 13.4699707 C18.47791458 13.48278076 17.61745026 13.49559082 16.73091125 13.50878906 C11.33154067 13.46202967 8.29276012 12.5717923 4 9 C1.55136689 6.28664979 0.1565211 4.46956331 -1 1 C-0.67 0.67 -0.34 0.34 0 0 Z " fill="#5B4A68" transform="translate(5,113)"/>
<path d="M0 0 C8.25 0 16.5 0 25 0 C25 0.33 25 0.66 25 1 C34.57 1.33 44.14 1.66 54 2 C53.01 2.33 52.02 2.66 51 3 C50.67 3.99 50.34 4.98 50 6 C49.01 5.67 48.02 5.34 47 5 C46.67 5.33 46.34 5.66 46 6 C45.34 5.67 44.68 5.34 44 5 C44 4.34 44 3.68 44 3 C43.34 3 42.68 3 42 3 C42 3.99 42 4.98 42 6 C34.41 6 26.82 6 19 6 C18.67 5.34 18.34 4.68 18 4 C15.33875015 3.57561464 12.74070085 3.24999628 10.0625 3 C2.26869607 2.26869607 2.26869607 2.26869607 0 0 Z " fill="#B5748C" transform="translate(16,117)"/>
<path d="M0 0 C0.66 0 1.32 0 2 0 C2.82440139 7.4705491 3.09819545 14.77127553 2.9140625 22.28125 C2.89314041 23.32617111 2.87221832 24.37109222 2.85066223 25.44767761 C2.78169196 28.79861912 2.70367724 32.14927359 2.625 35.5 C2.57530864 37.7992287 2.52591168 40.09846378 2.47680664 42.39770508 C2.13577519 57.93751653 1.70633535 73.47197813 1 89 C0.67 89 0.34 89 0 89 C0 59.63 0 30.26 0 0 Z " fill="#AA6A81" transform="translate(113,19)"/>
<path d="M0 0 C0.33 0 0.66 0 1 0 C1 21.78 1 43.56 1 66 C0.67 65.01 0.34 64.02 0 63 C-0.66 63 -1.32 63 -2 63 C-2.33 63.99 -2.66 64.98 -3 66 C-3.33 64.68 -3.66 63.36 -4 62 C-4.66 62 -5.32 62 -6 62 C-6.66 60.35 -7.32 58.7 -8 57 C-7.01 56.01 -6.02 55.02 -5 54 C-4.67 54.66 -4.34 55.32 -4 56 C-3.505 53.03 -3.505 53.03 -3 50 C-2.34 50.33 -1.68 50.66 -1 51 C-0.67 34.17 -0.34 17.34 0 0 Z M-12 58 C-10.68 58 -9.36 58 -8 58 C-8.9977758 60.99332739 -9.7522025 61.94766315 -12 64 C-12.99 63.67 -13.98 63.34 -15 63 C-13.75 60.5 -13.75 60.5 -12 58 Z " fill="#CF8796" transform="translate(34,32)"/>
<path d="M0 0 C0.66 0.99 1.32 1.98 2 3 C2.33 2.34 2.66 1.68 3 1 C3 9.25 3 17.5 3 26 C1 23 1 23 1 20 C-0.15811388 22.94729537 -0.15811388 22.94729537 0 26 C-0.66 26 -1.32 26 -2 26 C-4 23 -4 23 -3.6875 20.4375 C-3 18 -3 18 -2 16 C-2.66 16 -3.32 16 -4 16 C-3.67 14.68 -3.34 13.36 -3 12 C-2.34 12 -1.68 12 -1 12 C-1 11.34 -1 10.68 -1 10 C-2.32 9.67 -3.64 9.34 -5 9 C-5 8.34 -5 7.68 -5 7 C-4.01 7 -3.02 7 -2 7 C-2.33 6.34 -2.66 5.68 -3 5 C-3.33 4.34 -3.66 3.68 -4 3 C-3.01 3 -2.02 3 -1 3 C-0.67 2.01 -0.34 1.02 0 0 Z " fill="#D8909F" transform="translate(11,58)"/>
<path d="M0 0 C0.92702728 -0.00014603 1.85405457 -0.00029205 2.80917358 -0.0004425 C5.87711924 0.00025485 8.94500439 0.00803902 12.01293945 0.01586914 C14.1385749 0.01773395 16.26421077 0.01915756 18.3898468 0.02015686 C23.98761174 0.0239771 29.58535077 0.0338032 35.18310547 0.04486084 C40.89395802 0.05508555 46.60481476 0.05965676 52.31567383 0.06469727 C63.52336751 0.07542588 74.73104195 0.09249642 85.9387207 0.11352539 C85.9387207 0.44352539 85.9387207 0.77352539 85.9387207 1.11352539 C84.78693329 1.11717102 83.63514587 1.12081665 82.44845581 1.12457275 C71.58964106 1.16152696 60.73110979 1.21930452 49.87251091 1.29742813 C44.29007676 1.33692356 38.70780083 1.36910203 33.12524414 1.38452148 C27.7369235 1.39967427 22.34903782 1.4340958 16.9609108 1.48183441 C14.90608629 1.49666234 12.8511997 1.50456721 10.79632187 1.50540924 C7.91607129 1.50777635 5.03702523 1.53483585 2.15698242 1.56762695 C1.30893539 1.56259659 0.46088837 1.55756622 -0.41285706 1.55238342 C-5.74256276 1.64615497 -8.86218362 2.52922795 -13.0612793 6.11352539 C-14.94696623 9.21367469 -14.94696623 9.21367469 -16.0612793 12.11352539 C-16.7212793 10.79352539 -17.3812793 9.47352539 -18.0612793 8.11352539 C-17.13166507 6.96128511 -16.1922668 5.81693363 -15.2487793 4.67602539 C-14.72670898 4.03793945 -14.20463867 3.39985352 -13.66674805 2.74243164 C-10.00665735 -0.97109104 -4.84390287 -0.01984557 0 0 Z " fill="#3F4260" transform="translate(22.061279296875,3.886474609375)"/>
<path d="M0 0 C0.33 0 0.66 0 1 0 C1.67008918 12.70191262 1.0556809 22.01268126 -7.25 32.3125 C-14.46191834 39.91383077 -22.89079138 44.50892498 -33.43188477 45.23706055 C-37.16752027 45.29397363 -40.88974817 45.26251278 -44.625 45.1875 C-45.91535156 45.17396484 -47.20570312 45.16042969 -48.53515625 45.14648438 C-51.69055028 45.11142444 -54.84504578 45.06228144 -58 45 C-58 44.67 -58 44.34 -58 44 C-57.0867395 43.970271 -57.0867395 43.970271 -56.1550293 43.93994141 C-31.67868911 43.74841631 -31.67868911 43.74841631 -10.4453125 32.71484375 C-3.64944471 24.65163845 -1.11070147 16.97786526 -0.4375 6.6875 C-0.35371094 5.43324219 -0.26992187 4.17898437 -0.18359375 2.88671875 C-0.09271484 1.45779297 -0.09271484 1.45779297 0 0 Z " fill="#A16876" transform="translate(100,61)"/>
<path d="M0 0 C1.32 0 2.64 0 4 0 C3.42655063 2.86724686 3.1385485 3.8614515 1 6 C0.97746557 8.44963177 0.97746557 8.44963177 1.375 11.125 C1.48585938 12.03507812 1.59671875 12.94515625 1.7109375 13.8828125 C1.80632812 14.58148438 1.90171875 15.28015625 2 16 C2.99 16 3.98 16 5 16 C5 14.35 5 12.7 5 11 C6.32 10.67 7.64 10.34 9 10 C10.5625 12.8125 10.5625 12.8125 12 16 C11.67 16.99 11.34 17.98 11 19 C7.9375 20.1875 7.9375 20.1875 5 21 C4.67 24.3 4.34 27.6 4 31 C3.67 31 3.34 31 3 31 C3 27.37 3 23.74 3 20 C2.34 20 1.68 20 1 20 C0.81824219 19.20335938 0.63648437 18.40671875 0.44921875 17.5859375 C-0.87019942 12.02408245 -2.11089563 6.95275035 -5 2 C-4.34 2 -3.68 2 -3 2 C-2.67 2.66 -2.34 3.32 -2 4 C-1.34 2.68 -0.68 1.36 0 0 Z " fill="#D98EA1" transform="translate(98,41)"/>
<path d="M0 0 C0.86560547 -0.00128906 1.73121094 -0.00257812 2.62304688 -0.00390625 C3.9755957 0.00189453 3.9755957 0.00189453 5.35546875 0.0078125 C6.24556641 0.00394531 7.13566406 0.00007813 8.05273438 -0.00390625 C12.66304302 0.0029289 17.00784495 0.18830738 21.54296875 1.1328125 C21.54296875 1.7928125 21.54296875 2.4528125 21.54296875 3.1328125 C22.20296875 2.4728125 22.86296875 1.8128125 23.54296875 1.1328125 C24.20296875 2.4528125 24.86296875 3.7728125 25.54296875 5.1328125 C18.18847245 5.26084048 10.8338026 5.22240206 3.54296875 4.1328125 C3.21296875 3.8028125 2.88296875 3.4728125 2.54296875 3.1328125 C1.55296875 3.6278125 1.55296875 3.6278125 0.54296875 4.1328125 C-4.99549279 4.36358173 -4.99549279 4.36358173 -7.45703125 3.1328125 C-7.45703125 2.4728125 -7.45703125 1.8128125 -7.45703125 1.1328125 C-4.6449667 0.19545765 -2.91013032 0.00418681 0 0 Z " fill="#BF7C93" transform="translate(74.45703125,118.8671875)"/>
<path d="M0 0 C0.99 0 1.98 0 3 0 C3 0.66 3 1.32 3 2 C4.32 2 5.64 2 7 2 C6.67 2.99 6.34 3.98 6 5 C6.66 5 7.32 5 8 5 C8.66 3.68 9.32 2.36 10 1 C11.9904118 4.48322065 12 6.99709697 12 11 C12.99 11.33 13.98 11.66 15 12 C9.06 11.67 3.12 11.34 -3 11 C-3 10.34 -3 9.68 -3 9 C-2.01 8.67 -1.02 8.34 0 8 C-0.66 7.67 -1.32 7.34 -2 7 C-1.125 2.125 -1.125 2.125 0 1 C0 0.67 0 0.34 0 0 Z " fill="#DD92A2" transform="translate(59,16)"/>
<path d="M0 0 C0.99 0.33 1.98 0.66 3 1 C3 1.33 3 1.66 3 2 C5.97 2.33 8.94 2.66 12 3 C11.01 3.99 10.02 4.98 9 6 C8.34 6 7.68 6 7 6 C6.67 7.98 6.34 9.96 6 12 C2.37 12 -1.26 12 -5 12 C-4.67 11.34 -4.34 10.68 -4 10 C-4.33 9.34 -4.66 8.68 -5 8 C-5.99 8.495 -5.99 8.495 -7 9 C-6.690625 8.4225 -6.38125 7.845 -6.0625 7.25 C-5.07416636 5.15705816 -4.4831387 3.25464725 -4 1 C-3.34 1 -2.68 1 -2 1 C-1.20046862 4.28696233 -0.90341064 5.71023192 -2 9 C-0.35 9.33 1.3 9.66 3 10 C3 9.01 3 8.02 3 7 C2.01 7 1.02 7 0 7 C-0.93423645 3.98968256 -1.04449911 3.13349732 0 0 Z " fill="#D78E9F" transform="translate(36,104)"/>
<path d="M0 0 C5.61 0 11.22 0 17 0 C15.02 2.97 15.02 2.97 13 6 C12.64141484 7.32676508 12.2981424 8.65835921 12 10 C10 11 10 11 7 11 C6.67 10.34 6.34 9.68 6 9 C6.66 9 7.32 9 8 9 C8 8.01 8 7.02 8 6 C8.66 6 9.32 6 10 6 C10 5.01 10 4.02 10 3 C9.34 3 8.68 3 8 3 C8.33 3.66 8.66 4.32 9 5 C8.21625 5.309375 7.4325 5.61875 6.625 5.9375 C4.07669872 6.92875038 4.07669872 6.92875038 2 8 C2.50603992 5.83125748 2.99983813 4.00032373 4 2 C2.02 2.66 0.04 3.32 -2 4 C-1.34 2.68 -0.68 1.36 0 0 Z " fill="#D68C9C" transform="translate(23,16)"/>
<path d="M0 0 C8.65458718 0 14.44293332 0.26256665 21 6 C20.67 6.66 20.34 7.32 20 8 C19.278125 7.38125 18.55625 6.7625 17.8125 6.125 C12.80418619 3.04334441 12.80418619 3.04334441 1 2 C1 15.2 1 28.4 1 42 C0.67 42 0.34 42 0 42 C0 28.14 0 14.28 0 0 Z " fill="#AB6D79" transform="translate(55,44)"/>
<path d="M0 0 C0.75410156 0.00451172 1.50820312 0.00902344 2.28515625 0.01367188 C4.14847127 0.02546501 6.01174555 0.04340058 7.875 0.0625 C7.875 0.7225 7.875 1.3825 7.875 2.0625 C6.555 2.3925 5.235 2.7225 3.875 3.0625 C4.535 3.0625 5.195 3.0625 5.875 3.0625 C5.875 3.7225 5.875 4.3825 5.875 5.0625 C7.195 5.3925 8.515 5.7225 9.875 6.0625 C5.915 6.0625 1.955 6.0625 -2.125 6.0625 C-1.795 5.4025 -1.465 4.7425 -1.125 4.0625 C-2.115 4.0625 -3.105 4.0625 -4.125 4.0625 C-4.125 3.4025 -4.125 2.7425 -4.125 2.0625 C-5.115 2.0625 -6.105 2.0625 -7.125 2.0625 C-6.465 2.3925 -5.805 2.7225 -5.125 3.0625 C-5.125 3.7225 -5.125 4.3825 -5.125 5.0625 C-4.465 5.3925 -3.805 5.7225 -3.125 6.0625 C-5.765 6.0625 -8.405 6.0625 -11.125 6.0625 C-10.465 5.4025 -9.805 4.7425 -9.125 4.0625 C-9.455 3.0725 -9.785 2.0825 -10.125 1.0625 C-6.93675432 -0.53162284 -3.49603338 -0.03924735 0 0 Z " fill="#D48E9E" transform="translate(82.125,6.9375)"/>
<path d="M0 0 C3.3 0 6.6 0 10 0 C10.33 0.66 10.66 1.32 11 2 C9.35 2 7.7 2 6 2 C6 2.66 6 3.32 6 4 C7.65 3.67 9.3 3.34 11 3 C11.33 3.99 11.66 4.98 12 6 C9.36 6.33 6.72 6.66 4 7 C4 7.99 4 8.98 4 10 C3.01 10 2.02 10 1 10 C0.67 9.01 0.34 8.02 0 7 C0.66 7 1.32 7 2 7 C1.34 4.69 0.68 2.38 0 0 Z " fill="#D78D9C" transform="translate(41,16)"/>
<path d="M0 0 C8.91 0 17.82 0 27 0 C25.02 0.99 25.02 0.99 23 2 C21.71745356 4.53770003 21.71745356 4.53770003 21 7 C18.36 7 15.72 7 13 7 C13.66 6.67 14.32 6.34 15 6 C15.66 4.68 16.32 3.36 17 2 C11.39 1.67 5.78 1.34 0 1 C0 0.67 0 0.34 0 0 Z " fill="#78C0E2" transform="translate(64,127)"/>
<path d="M0 0 C2.31 0 4.62 0 7 0 C7 2.64 7 5.28 7 8 C6.34 7.34 5.68 6.68 5 6 C4.34 6.66 3.68 7.32 3 8 C2.01 8 1.02 8 0 8 C-1.125 2.25 -1.125 2.25 0 0 Z " fill="#DA91A1" transform="translate(7,50)"/>
<path d="M0 0 C1.32 0 2.64 0 4 0 C3.42655063 2.86724686 3.1385485 3.8614515 1 6 C1.29241674 8.7633037 1.29241674 8.7633037 2 12 C2.19912969 13.4567909 2.38649986 14.91523416 2.5625 16.375 C2.706875 17.57125 2.85125 18.7675 3 20 C2.34 20 1.68 20 1 20 C0.81824219 19.20335938 0.63648437 18.40671875 0.44921875 17.5859375 C-0.87019942 12.02408245 -2.11089563 6.95275035 -5 2 C-4.34 2 -3.68 2 -3 2 C-2.67 2.66 -2.34 3.32 -2 4 C-1.34 2.68 -0.68 1.36 0 0 Z " fill="#C98693" transform="translate(98,41)"/>
<path d="M0 0 C0.33 0.99 0.66 1.98 1 3 C1.99 3 2.98 3 4 3 C5.35700647 5.71401294 5.1123861 7.84846316 5.09765625 10.8828125 C5.09443359 12.04941406 5.09121094 13.21601563 5.08789062 14.41796875 C5.07951172 15.64128906 5.07113281 16.86460938 5.0625 18.125 C5.05798828 19.35605469 5.05347656 20.58710938 5.04882812 21.85546875 C5.0370133 24.90369392 5.02054028 27.95182314 5 31 C4.67 31 4.34 31 4 31 C3.98541748 30.39526855 3.97083496 29.79053711 3.95581055 29.16748047 C3.88090812 26.40270735 3.78438927 23.63908643 3.6875 20.875 C3.65366211 19.44800781 3.65366211 19.44800781 3.61914062 17.9921875 C3.40969414 12.50849773 2.75329568 8.85702025 0 4 C0 2.68 0 1.36 0 0 Z " fill="#79C2E0" transform="translate(121,9)"/>
<path d="M0 0 C0.76183594 -0.01417969 1.52367188 -0.02835938 2.30859375 -0.04296875 C4.79597315 0.21137334 6.41058106 0.94732804 8.5625 2.1875 C8.5625 2.5175 8.5625 2.8475 8.5625 3.1875 C1.9625 3.1875 -4.6375 3.1875 -11.4375 3.1875 C-7.34048115 1.13899058 -4.50906481 0.0380191 0 0 Z " fill="#E8B3B8" transform="translate(98.4375,12.8125)"/>
<path d="M0 0 C3.43167978 2.96372345 4.82470317 5.82846583 5.19140625 10.37109375 C5.2946022 15.00115202 5.23104457 18.81679142 3 23 C2.01 22.34 1.02 21.68 0 21 C0 20.34 0 19.68 0 19 C0.99 19 1.98 19 3 19 C2.54240047 12.4491015 1.7899856 6.3246158 0 0 Z " fill="#CC8B95" transform="translate(76,52)"/>
<path d="M0 0 C5.96825868 0.70214808 9.73672815 3.41281229 13.4375 8.0625 C13.953125 9.031875 14.46875 10.00125 15 11 C14.67 11.99 14.34 12.98 14 14 C13.443125 13.278125 12.88625 12.55625 12.3125 11.8125 C8.62944274 7.33310603 5.64955779 3.77557531 0 2 C0 1.34 0 0.68 0 0 Z " fill="#565A77" transform="translate(108,4)"/>
<path d="M0 0 C0.33 0.66 0.66 1.32 1 2 C1.66 2.33 2.32 2.66 3 3 C2.01 3.33 1.02 3.66 0 4 C-0.73323796 6.01508358 -0.73323796 6.01508358 -1 8 C-1.66 7.67 -2.32 7.34 -3 7 C-3 7.66 -3 8.32 -3 9 C-2.01 9.33 -1.02 9.66 0 10 C-0.33 10.66 -0.66 11.32 -1 12 C-2.32 10.68 -3.64 9.36 -5 8 C-4 5 -4 5 -3 4 C-4.65 4 -6.3 4 -8 4 C-8.33 3.34 -8.66 2.68 -9 2 C-6.69 2.33 -4.38 2.66 -2 3 C-1.34 2.01 -0.68 1.02 0 0 Z " fill="#DE92A4" transform="translate(83,21)"/>
<path d="M0 0 C0.33 0 0.66 0 1 0 C1 5.94 1 11.88 1 18 C0.34 18 -0.32 18 -1 18 C-0.67 15.69 -0.34 13.38 0 11 C-1.98 11.99 -1.98 11.99 -4 13 C-3.25 6.25 -3.25 6.25 -1 4 C-0.3574765 1.93125966 -0.3574765 1.93125966 0 0 Z " fill="#DF97A9" transform="translate(112,90)"/>
<path d="M0 0 C0.81210937 0.24556641 0.81210937 0.24556641 1.640625 0.49609375 C4.40222593 1.08590587 6.92818139 1.09609308 9.75 1.0625 C10.73484375 1.05347656 11.7196875 1.04445313 12.734375 1.03515625 C13.48203125 1.02355469 14.2296875 1.01195312 15 1 C15 1.66 15 2.32 15 3 C11.93466836 4.53266582 8.73245728 4.10276471 5.375 4.0625 C4.66859375 4.05798828 3.9621875 4.05347656 3.234375 4.04882812 C1.48954725 4.03703875 -0.255237 4.01910324 -2 4 C-2 3.34 -2 2.68 -2 2 C-1.34 2 -0.68 2 0 2 C0 1.34 0 0.68 0 0 Z " fill="#DF96A8" transform="translate(39,8)"/>
<path d="M0 0 C0.556875 0.721875 1.11375 1.44375 1.6875 2.1875 C5.37055726 6.66689397 8.35044221 10.22442469 14 12 C12.375 12.75 12.375 12.75 10 13 C4.73810759 10.14980828 0.91562381 6.74687144 -1 1 C-0.67 0.67 -0.34 0.34 0 0 Z " fill="#665874" transform="translate(5,113)"/>
<path d="M0 0 C0.33 0 0.66 0 1 0 C1 2.31 1 4.62 1 7 C-1.07553648 7.5534764 -2.84365964 8 -5 8 C-5 7.34 -5 6.68 -5 6 C-5.66 5.67 -6.32 5.34 -7 5 C-6.67 4.01 -6.34 3.02 -6 2 C-4.02 2.495 -4.02 2.495 -2 3 C-1.34 2.01 -0.68 1.02 0 0 Z " fill="#DE93A4" transform="translate(33,53)"/>
<path d="M0 0 C0.66 0.66 1.32 1.32 2 2 C3.98356483 2.71408334 5.98315437 3.38617742 8 4 C6.68 4.33 5.36 4.66 4 5 C4 5.99 4 6.98 4 8 C4 8.99 4 9.98 4 11 C3.34 11 2.68 11 2 11 C2 10.34 2 9.68 2 9 C1.34 9 0.68 9 0 9 C0 6.03 0 3.06 0 0 Z " fill="#D48C9B" transform="translate(17,37)"/>
<path d="M0 0 C2.31 0.33 4.62 0.66 7 1 C6.34 1.61875 5.68 2.2375 5 2.875 C2.7715451 4.75637427 2.7715451 4.75637427 3 7 C1.35 6.67 -0.3 6.34 -2 6 C-2.33 5.01 -2.66 4.02 -3 3 C-2.01 3 -1.02 3 0 3 C0 2.01 0 1.02 0 0 Z " fill="#C8879B" transform="translate(12,115)"/>
<path d="M0 0 C0.33 0.66 0.66 1.32 1 2 C-0.78923463 5.57846925 -2.85953223 8.50609912 -6 11 C-8.75 11.25 -8.75 11.25 -11 11 C-9.68 10.34 -8.36 9.68 -7 9 C-7 8.34 -7 7.68 -7 7 C-5.37660195 5.29115995 -3.70680947 3.62553283 -2 2 C-1.34 1.34 -0.68 0.68 0 0 Z " fill="#635A77" transform="translate(122,113)"/>
<path d="M0 0 C0.928125 0.2784375 0.928125 0.2784375 1.875 0.5625 C4.04160178 1.23686176 4.04160178 1.23686176 6 0 C6 2.64 6 5.28 6 8 C5.34 8 4.68 8 4 8 C3.67 6.68 3.34 5.36 3 4 C2.67 4.33 2.34 4.66 2 5 C2.28604898 6.67542976 2.61781233 8.34385343 3 10 C1.5 8.9375 1.5 8.9375 0 7 C-0.1875 3.3125 -0.1875 3.3125 0 0 Z " fill="#BC819A" transform="translate(115,90)"/>
<path d="M0 0 C2.52259061 1.97420135 2.9929808 2.96745642 3.6875 6.1875 C3.790625 7.115625 3.89375 8.04375 4 9 C0.71023192 10.09658936 -0.71303767 9.79953138 -4 9 C-3.34 8.01 -2.68 7.02 -2 6 C-1.34 6 -0.68 6 0 6 C0 4.02 0 2.04 0 0 Z " fill="#C08095" transform="translate(116,10)"/>
<path d="M0 0 C0.70125 0.144375 1.4025 0.28875 2.125 0.4375 C1.125 2.4375 1.125 2.4375 -1.25 3.6875 C-4.46639887 5.83176591 -5.39216777 7.92552894 -6.875 11.4375 C-7.535 10.1175 -8.195 8.7975 -8.875 7.4375 C-3.7809081 0.57535558 -3.7809081 0.57535558 0 0 Z " fill="#655A75" transform="translate(12.875,4.5625)"/>
<path d="M0 0 C0.33 0 0.66 0 1 0 C1 5.94 1 11.88 1 18 C0.34 16.68 -0.32 15.36 -1 14 C-1.33 14 -1.66 14 -2 14 C-2.33 13.01 -2.66 12.02 -3 11 C-2.67 10.34 -2.34 9.68 -2 9 C-1.34 9 -0.68 9 0 9 C0 6.03 0 3.06 0 0 Z " fill="#E099AA" transform="translate(112,48)"/>
<path d="M0 0 C0 0.66 0 1.32 0 2 C-1.98 2.33 -3.96 2.66 -6 3 C-6 3.66 -6 4.32 -6 5 C-6.66 5 -7.32 5 -8 5 C-8.33 3.68 -8.66 2.36 -9 1 C-5.64919071 -1.10976881 -3.77897651 -1.0497157 0 0 Z " fill="#D78F9D" transform="translate(42,27)"/>
<path d="M0 0 C2.64 0 5.28 0 8 0 C7.01 0.495 7.01 0.495 6 1 C6 1.99 6 2.98 6 4 C4.02 4 2.04 4 0 4 C0 2.68 0 1.36 0 0 Z " fill="#BD7B90" transform="translate(21,119)"/>
<path d="M0 0 C0.99 0.33 1.98 0.66 3 1 C3.33 2.98 3.66 4.96 4 7 C3.34 7 2.68 7 2 7 C2 7.99 2 8.98 2 10 C0.68 9.67 -0.64 9.34 -2 9 C-1.67 8.01 -1.34 7.02 -1 6 C-1 6.66 -1 7.32 -1 8 C-0.34 8 0.32 8 1 8 C0.649375 7.05125 0.29875 6.1025 -0.0625 5.125 C-1 2 -1 2 0 0 Z " fill="#B4778E" transform="translate(117,43)"/>
<path d="M0 0 C0.99 0 1.98 0 3 0 C3 0.66 3 1.32 3 2 C2.34 2 1.68 2 1 2 C0.896875 2.639375 0.79375 3.27875 0.6875 3.9375 C0.460625 4.618125 0.23375 5.29875 0 6 C-0.99 6.33 -1.98 6.66 -3 7 C-3.66 6.67 -4.32 6.34 -5 6 C-5 5.01 -5 4.02 -5 3 C-4.01 3 -3.02 3 -2 3 C-1.34 2.01 -0.68 1.02 0 0 Z " fill="#D78C9C" transform="translate(62,55)"/>
<path d="M0 0 C4.62 0 9.24 0 14 0 C10.77208445 2.1519437 9.71599191 2.20086443 6 2 C5.67 2.99 5.34 3.98 5 5 C4.67 4.01 4.34 3.02 4 2 C1.98491642 1.26676204 1.98491642 1.26676204 0 1 C0 0.67 0 0.34 0 0 Z " fill="#D18999" transform="translate(78,16)"/>
<path d="M0 0 C1.32 0 2.64 0 4 0 C4 1.32 4 2.64 4 4 C2.02 4.99 0.04 5.98 -2 7 C-1.125 1.125 -1.125 1.125 0 0 Z " fill="#D790A0" transform="translate(19,11)"/>
<path d="M0 0 C1.65 0 3.3 0 5 0 C4.42655063 2.86724686 4.1385485 3.8614515 2 6 C1.67 6.66 1.34 7.32 1 8 C0 7 0 7 -0.0625 3.4375 C-0.041875 2.303125 -0.02125 1.16875 0 0 Z " fill="#D78E9E" transform="translate(18,21)"/>
<path d="M0 0 C2.97 0.33 5.94 0.66 9 1 C8.01 1.66 7.02 2.32 6 3 C5.67 3.66 5.34 4.32 5 5 C3.35 4.67 1.7 4.34 0 4 C0 2.68 0 1.36 0 0 Z " fill="#DE97A7" transform="translate(97,8)"/>
<path d="M0 0 C1.41623216 -0.05447047 2.83308191 -0.09300508 4.25 -0.125 C5.03890625 -0.14820313 5.8278125 -0.17140625 6.640625 -0.1953125 C9.20731941 0.0171622 10.7916067 0.71345895 13 2 C13 2.33 13 2.66 13 3 C10.36 3 7.72 3 5 3 C5 2.67 5 2.34 5 2 C3.35 1.67 1.7 1.34 0 1 C0 0.67 0 0.34 0 0 Z " fill="#E3AAB3" transform="translate(94,13)"/>
<path d="M0 0 C1.32 0 2.64 0 4 0 C4.625 1.875 4.625 1.875 5 4 C4.34 4.66 3.68 5.32 3 6 C0 4 0 4 -1 2 C-0.67 1.34 -0.34 0.68 0 0 Z " fill="#D78D9E" transform="translate(101,95)"/>
<path d="M0 0 C3.91211733 1.15585285 6.8745041 2.35534962 10 5 C9.67 5.66 9.34 6.32 9 7 C8.0925 6.38125 7.185 5.7625 6.25 5.125 C3.85051183 3.55610389 1.59038388 2.19556179 -1 1 C-0.67 0.67 -0.34 0.34 0 0 Z " fill="#BA7C85" transform="translate(66,45)"/>
<path d="M0 0 C0.99 0 1.98 0 3 0 C2.67 1.65 2.34 3.3 2 5 C2.66 5.33 3.32 5.66 4 6 C3.34 6 2.68 6 2 6 C2 6.99 2 7.98 2 9 C1.34 9 0.68 9 0 9 C-0.87890625 2.84765625 -0.87890625 2.84765625 -1 1 C-0.67 0.67 -0.34 0.34 0 0 Z " fill="#B5778D" transform="translate(117,93)"/>
<path d="M0 0 C2.33944736 0.28730055 4.6739143 0.61936779 7 1 C6.34 1.66 5.68 2.32 5 3 C4.01 2.67 3.02 2.34 2 2 C1.67 2.99 1.34 3.98 1 5 C1 4.01 1 3.02 1 2 C0.34 1.67 -0.32 1.34 -1 1 C-0.67 0.67 -0.34 0.34 0 0 Z " fill="#D38898" transform="translate(54,16)"/>
<path d="M0 0 C0.556875 0.33 1.11375 0.66 1.6875 1 C4.30284522 2.1309601 6.1806646 2.15662974 9 2 C8 4 8 4 6.0625 4.6875 C4 5 4 5 2 4 C2 3.34 2 2.68 2 2 C1.01 1.67 0.02 1.34 -1 1 C-0.67 0.67 -0.34 0.34 0 0 Z " fill="#DE97A8" transform="translate(75,8)"/>
</svg>
